<?xml version="1.0" encoding="UTF-8"?>
<svg xmlns="http://www.w3.org/2000/svg" version="1.1" viewBox="0 0 600 600">
  <!-- Generator: Adobe Illustrator 29.8.9, SVG Export Plug-In . SVG Version: 2.1.1 Build 1)  -->
  <defs>
    <style>
      .st0 {
        fill: #f8e4b1;
      }

      .st1 {
        fill: #1d1d1b;
      }

      .st2 {
        fill: none;
        stroke: #000;
        stroke-miterlimit: 10;
        stroke-width: 14px;
      }
    </style>
  </defs>
  <g id="Capa_1">
    <rect class="st0" width="600" height="600"/>
  </g>
  <g id="Capa_2">
    <g id="Capa_11" data-name="Capa_1">
      <g id="uuid-3ad8d931-ae36-4539-835d-e8151ce9348e" data-name="Capa_11">
        <g id="Objeto_generativo">
          <g>
            <g>
              <path d="M438.59,311.05c-.45,1.05-1.47,1.32-2.24,1.1-1.04-.3-1.51-1.32-1.31-2.37.15-.8.54-1.56,1.13-1.79.8-.31,1.86-.3,2.32.45s.44,1.81.1,2.61h0Z"/>
              <g>
                <path d="M345.16,301.96l-4.11.68c-.57.09-1.02-.09-1.42-.43-.29-.25-.75-.84-.32-1.43.46-.64,1.69-1.29,2.57-1.22,1.73.12,3.34.9,4.68,1.85-.31.59-.81.46-1.4.56h0Z"/>
                <path d="M337.65,299.95c-.03,1-1.6,1.43-2.27,1.44-1.07.01-1.68-.6-1.97-1.43-.27-.77-.12-1.83.87-2.27,1.31-.6,3.43.53,3.37,2.26h0Z"/>
                <path d="M355.44,326.78c-.12.84-.56,1.43-1.18,1.62s-1.4.17-1.85-.41c-.42-.53-.41-1.24-.18-1.84.21-.55.76-1.06,1.5-1.16.5-.06.92.07,1.22.34.34.3.58.77.48,1.44h0Z"/>
              </g>
              <path d="M434.47,318.11c.14.48.1.93-.06,1.23-.4.73-2.15,1.05-2.94.25-.5-.51-.57-1.26-.27-1.94.26-.59.94-.89,1.72-.84s1.31.46,1.55,1.3h0Z"/>
              <path d="M471.46,292.63c-.42-2.16-1.06-4.23-2.1-6.16-.57-1.06-1.53-1.76-2.61-2.24l-7.29-3.3-9.62-4.75-24.52-10.28-10.47-4.57-5.9-2.57-8.98-4.96c-7.3-4.03-14.06-8.77-20.28-14.31-1.44-1.29-2.68-2.69-3.36-4.48-1.02-2.67-1.3-5.47-1.38-8.3l-.11-4.18c-.07-2.63-2.63-3.23-3.05-6.18-.18-1.28-.78-1.98-1.62-2.89l-9.03-9.72c-1.49-1.6-3.39-2.62-5.46-3.19.14,1.05.8,1.78,1.52,2.45l4.5,4.14c.95.88,1.73,1.81,2.34,2.95l1.75,3.31c-1.9.13-3.28-2.58-5.64-.71-.94.75-2.26.6-3.06-.31-1.14-1.28-2.85-.24-3.16-.85-.44-.89-.41-1.95-.66-2.88-.34-1.28-1.38-1.82-2.64-1.47-1.4.38-2.57,1.29-3.12,2.34-1.56,2.96.87,4.47-.18,6.18l-2.89,4.71c-.21.34-.29.87.06,1.21,1.63,1.55,3.61,2.85,5.83,3.43,2.04.53,4.04.16,6.15-.18.15.92-.54,1.8-1.42,2.15-2.56,1.03-1.99,3.22-4.23,4.22-2.4,1.07-2.07,3.53-4.01,4.24-1.86.68-2.82,3.42-5.9,4.02-1.89.38-1.56,2.11-3.48,3.28-1.85,1.13-.63,2.9-1.15,5.21-.14.61.25,1.15.85,1.24,2.18.33,1.88,2.7,2.82,2.69.62,0,1.76-1.21,2.25-.47.36.55-.74,1.8.04,3.87.17.43-.03.96-.3,1.18-.72.55-2.16-.27-3.36.85-1.36,1.27-.05,2.87-1.69,4.77-1.74,2.01.05,3.69-1.34,5.84-.54.82-.71,1.74-.83,2.73l-.35,2.84c-.1.79-.06,1.5.29,2.19-.55.21-.93.56-1.08.97-.15.42-.05.88.15,1.34,1.08,2.43,4.02,2.67,6.16,4.6.96.86.76,3.19,3.67,4.16l2.84.94,3.26,2.69c.87.72-.93,2.93.32,3.27l3.64.99c.75.2,1.53.02,2-.41,1.25-1.12.07-3.14,1.38-3.46.82-.2,2.57-.14,3.09.77.61,1.06.4,2.8.01,3.88-.33.94-2.39.34-2.91,1.04-.24.32-.24.82-.05,1.18l1.93,3.57c.2.36.53.61.87.59.92-.06,1.39-2.3,3.24-1.73,1.36.41,2.64.48,4.17.5-.58,1.63-.87,3.14-.87,4.78-2.04.65-4.12.07-6.19.07-1.52,0-2.58-.18-3.98-.83-.75-.35-2.29.41-3.04-.12-.38-.66-.41-1.7-1.18-2.21-1.83-1.22-4.31.71-5.25,3,1.2.81,2.61-.42,3.71,0,.63.57-.15,1.4-.48,1.85-.57.79-1.02,1.16-2.07,1.25l1.71,2c.77.9,1.66,1.77,2.94,1.62,1.17-.15,2.24.05,3.42.24,1.69.27,4.5-2.05,6.54-.2.34.31.58.8.52,1.14-.21,1.2-3.73,1.77-6.07,1.67-1.07-.04-2.89.95-2.26,2.14.62,1.18,2.68,1.07,3.78,1.35-.2,1.02-1.22,1.54-1.65,2.25-.36.58.5,1.24.96,1.26l2.59.1c-.02,1.41-2.66,1.38-2.7,2.82-.03,1.15,2.16,2,1.63,3.41-.53,1.37-3.12.44-4.98,3.85-.9,1.65-2.68,2.52-4.5,2.08-3.82-.92-8.46.93-13.71.72-1.4-.06-2.63-.37-4.05-.09-1.64.31-3.27-.12-4.78-.7-2.83-1.1-6.93-2.55-8.71-.27,1.24.84,2.56,1.99,4.07,2.11l6.1.49c.81.06,1.19.92,1.82,1.37,3.5,2.55,7.9.9,12.29,1.6,3.4.54,6.56-.08,9.61-1.55l14.39-6.93c.95-.45,1.46-1.08,1.71-2.14l1.91-8.2,2.39-13.44-.14-7.85c-.03-1.91-.18-4.05.39-5.9,1.28-4.21,4.1-7.7,7.24-10.64,1.66-1.55,2.7-3.23,3.34-5.41.85-2.91,1.04-5.94.67-8.98-.29-2.38-2.23-3.83-2.07-6.88.11-2.17-2.26-2.62-2.54-4.57l-.48-3.31c.8,0,1.29.12,2.06-.13l-3.66-3.59c-3.06-2.61-4.73-6.65-3.57-10.72,1.93,2.01,3.82,3.63,5.9,5.23l4.79,3.67c3.54,2.71,6.97,5.25,10.72,7.66,3.14,2.02,6.03,4.23,9.47,5.72l6.34,2.75,9.2,3.89c5.28,2.24,6.08,3.6,9.36,7.76.67.85,1.98,1.01,2.88,1.54l6.9,4.09c.65.39,1.18.89,1.66,1.52l-3.94,1.79c-1.81.82-4.09,1.74-2.87,3.24,1.29,1.59,2.83,3,4.76,3.55,3.06.88,5.07-2.41,5.12-2.42.27-.05.28.1.36.35l1.39,4.72-.09,3.65c-.07,2.83-.04,6.97-2.01,8.14-1.26.75-2.43,1.75-2.69,3.23l-.52,2.91c-.36,1.98,1.03,3.66,2.97,4.09,1.14.25,2.24-.14,2.92-.92,1.63-1.88-.21-4.19-.2-6.75,0-1.08.53-2.05,1.4-2.43.83-.37,2.26-.21,2.73.68l3.49,6.67c.82,1.58,1.37,3.41,1.13,5.2-.27,2.05-1.47,3.65-2.51,5.31-1.88,3.02-4.15,5.46-6.91,7.7-3.18,2.58-6.38,4.96-10.06,6.81l-6.41,3.76c-4.77,2.5-10.15,3.48-15.5,3.88-1.32.1-2.54-.21-3.75-.49l-5.99-1.41-9.02-1.99c-4.54-1-9.15-1.3-13.79-1.17-2.6.07-4.78,1.37-6.06,3.45-1.53-.39-2.79,0-4.09.6-5.58,2.6-8.07,3.38-14.62,2.3l-16.24-2.69-5.51-.45-8.49-1.25-5.24-.74c-1.57.01-3.05-.42-4.5-.92l-5.03-1.71c-.85-.29-1.67.17-1.86,1.02l-.45,2.07c-.07.34-.21.61-.44.73-.22.12-.57.15-.86,0l-2.32-1.06c-1.67-.77-3.39-.31-4.97.61l-1.86,1.08c-1.12.65-1.1-2.07-2.42-2.6-1.19-.47-2.89.44-3.03,1.75-.27,2.62,2.6,4.6,1.61,6.33-.44.77-1.18,1.38-1.77,2-2.18,2.29.8,3.85.71,4.82-.1,1.1-2.2,2.23-.84,4.31.3.46.6.89.71,1.63-1.62.2-2.89.81-4.17,1.74-1.65,1.21-4.53-1.32-5.15,1.17-.94,3.76-6.21,2.1-5.5,3.87.35.86,1.12,1.42,1.86,1.93,1.16.79.38,2.38-.75,3.76-1.49,1.83-.55,3.62-1.11,3.91-.53.27-1.63-.77-3.96.12-2.73,1.05-1.9,3.6-4.45,4.42-1.49.47-2.11,1.83-1.68,3.37l.67,2.4c-1.63,2.19-3.27,4.27-5.33,6.08-1.53.35-2.87.94-4.19,1.73-2.74.78-1.55,3.47-3.21,3.96-2.67.8-1.53,3.57-2.84,5.41-1.15,1.61-3.62,1.05-6.37,3.12-1.44,1.08-3.05,1.27-4.79.81l-4.07-1.09c-.56-.15-1.17.04-1.45.44-.26.37-.42,1.02-.2,1.51l1.42,3.21c.29.66.24,1.39-.21,1.79-1.36,1.22-2.4-1.15-5.99-1.9-2.12-.44-2.39-2.36-4.12-3.09-1.53-.64-3.2-.87-4.86-.61-1.16.18-2.29,1.25-2.02,2.42.27,1.14,3.05,1.11,3.77,3.86.11.12.07.25,0,.28-.36.13-2.3-.86-4.53-.21-.46.14-1.03.78-1.49.45l-1.48-1.07c-.81-.58-1.7-.74-2.47-.21l-2.39,1.63c-.73.5-1.57.73-2.19,1.41-1.5,1.63-2.7,3.45-3.55,5.52-.38.94-.26,2.07.49,2.82,3.41,3.42,7.41,6.23,12.25,7.18l13.95,2.75c11.58,1.68,23.2,1.24,34.54-1.6l11-3.6,3.24-12.78c1.36-5.34,1.03-11.19,1.93-13.52l2.22-5.8,4.89-11.18c3.18-6.09,7.05-11.55,11.58-16.74,5.07-5.81,10.98-10.68,17.48-14.81,4.33-2.76,8.81-4.65,13.65-6.24,3.77-1.24,7.44-1.72,11.46-1.67l10.53.14,8.9-.24,8.03.05c1.82.01,3.51.65,5.18,1.23,5.18,1.8,7.28-1.06,10.87-1.15l9.72-.24,12.46.5c5.43.22,10.5-.56,15.64-2.43,9.34-3.41,17.76-8.9,24.78-15.91,3.32-3.32,5.87-6.92,7.54-11.3,2.27-5.91,4.96-11.46,8.23-16.89,1.67-2.76,4.38-7.73,3.86-10.38v-.07ZM368.04,275.48c-1.49.85-2.87,1.67-3.98,3.01-.78.93-1.78,1.38-2.9,1.77-2.75.95-4.58,3.72-6.9,4.47-2.5.81-2.98-1.69-4.79-1.96l-7.36-1.07c-.98-.85-2.07-1.27-3.36-1.48l-3.31-4.26c1.96-1.59,3.18-3.63,3.81-5.98.25-.95.6-1.64,1.32-2.31.69-.64,1.11-1.57,1.63-2.36,2.13-3.26.6-5.49,2.6-8.17,1.22-1.63,2.09-3.34,2.76-5.25.14-.39.54-.71.83-.76.99-.19,2.17,2.22,4,1.13l3.84-2.26,3.5-1.58c1.39-.63,3.23-.43,3.92.95,1.72,3.41-2.15,6.7-.86,7.93.81.77,5.03-1.11,5.74,1.13l1.03,3.22c.92,2.86-1.43,3-1.36,4.81.04,1.1,1.97.79,2.57,1.47.76.88.44,5.76-2.74,7.58h0Z"/>
            </g>
            <g>
              <path d="M171.23,391.19c-1.2,1.49.03,2.84-.44,4.61-.58,2.19-3.26-2.44-1.96-4.9.73-1.38,1.13-2.58,1.16-4.17.03-1.48.67-2.94,2.11-3.66l.37,2.72c.26,1.97,0,3.86-1.24,5.41h0Z"/>
              <g>
                <path d="M346.95,203.31c-1.25-1.42-2.97-2.08-4.96-1.42-.58-2.2-1.56-4.11-2.94-5.91l-4.2-5.5c-2.08-2.73-2.52-6.33-1.05-9.55,2.1,1.11,5.44,1.31,5.77.45.45-1.18-2.05-3.92-3.55-5.39l-4.46-4.4-4.3-4.39c-2.03-2.06-4.85-3.2-7.79-3.4l-28.08-1.83c-8.51-.33-16.77-.13-25.18.91-2.97.37-5.83.64-8.64,1.55l-6.23,2.03c-3.05.99-5.64,2.84-8.34,4.49l-3.17,1.94c-7.26-3.98-18.16-.56-25.28,3.23-6.31,3.36-11.62,7.99-15.71,13.86-2.48,3.57-5.03,6.83-7.75,10.22l-10.24,12.79-10.32,13.16c-8.43,10.76-15.87,22.1-22.54,34.03l-6.36,12.49-8.53,19.74-3.28,9.85c-1.13,4.21-1.63,8.52-1.23,12.81.1,1.13.69,1.5,1.48,2.01,2.04,1.33-.77,4.79-.28,8.11l.79,5.3,1.78,11.1c.36,2.21,1.22,5.88,2.51,5.74.84-.09,1.02-1.68,1.22-3.1l.73-5.13c.76-5.34-1.32-9.41-.25-13.57.62-2.42.69-4.79.68-7.31,0-3.68.91-7.31,2.63-10.52l2.6-4.16c.58-.93.13-1.86-.2-2.64l1.94-3.65c.59-1.1,1.14-2.2,1.95-3.12.94-1.07,1.33-2.33,1.25-3.77-.13-2.64.34-5.11.81-7.66.39-2.16,1.02-4.02,2.17-5.9,1.52-2.49,2.83-5.03,4.89-7.26l-.27,4.55c-.02.39.02.77.35,1.05,1.78-1.71,2.78-3.96,3.48-6.37l.77-5.33c.28-1.98,1.34-3.53,3.24-4.17,3.13-1.05,2.06-4.63,5.16-7.28.41-.36.96-.61,1.41-.43.91.35,1.3,2.28,2.17,1.89.95-.43,1.35-2.32,1.96-2.32.29,0,2.53,4.72,4.12,3.64.16-.11.26-.41.29-.7l.33-3.64c.07-.73.54-1.34,1.09-1.61.51-.24,1.52-.42,1.88.12.5.75-1.62,2.62.3,3.73,1.75,1.02,4.07.56,7.21,3.56.82.79,1.91,1.45,2.26,2.59l1.43,4.68c.13.44.55.68.95.67.91-.04,1.02-1.73.98-3.41l-.27-12.65c-.02-1.18-.04-2.16.81-3.08.53-.58.78-1.42.88-2.23l.44-3.39c.21-1.64-1.22-3.31-.86-4.84.41-1.77.63-3.47.75-5.29l.33-5.28c.16-2.5.92-4.86,2.54-6.79.76-.9,1.84,1.65,3.57.84.94-1.43.59-3.52-.31-4.85-1.13-1.68,1.79-2.96,2.48-4.35.62-1.25,1.1-2.45,1.95-3.56,1.75-2.29-.96-3.81-.42-4.95.49-1.02,2.43-.3,3.77-2.07,1.24-1.63,3.5-1.38,5.9-2.53,1.17-.56,1.49-1.69,1.88-2.82.77-2.25,2.55-3.88,4.41-5.26.59-.43,1.2-.74,1.91-.22-1.86,2.7-1.27,6.85-.1,6.84.27,0,.64-.39.74-.71l1.19-4.09c.52-1.77,1.81-3.57,3.7-4.07,2.06-.55,3.66-1.32,5.57-2.72-.79,1.76-.99,3.22-1.54,4.85l-1,2.96c-.06,1.12-.26,2.11-.72,3.12-.93,2.05,1.04,4.13-1.01,5.35l-2.23,1.32c-.91.54-.91,1.49-1.35,2.29-.67,1.22-1.37,2.31-1.86,3.62-.97,2.53-2.31,4.66-4.01,6.77-.84,1.04-1.41,3.15-.54,4.23.95,1.18,1.42,2.09,1.91,3.49.52,1.51,1.25,2.82,1.36,4.51.06,1.01.34,1.9-.33,2.86-.41.6-.58,1.51-.51,2.28.28,3.15-1.2,5,1.31,7.44,3.39,3.3.68,5.84,2.88,7.7l3.77,3.19c1,.84,1.63,1.87,1.93,3.16.48,2.02,1.11,3.92,2,5.8.96,2.02-.08,3.86,2.27,4.69,2.38.84,1.02,2.71,2.54,5.28.41.69.4,1.43-.13,2.08-2.6,3.13-4.78,4.1-5.97,5.64-1.09,1.41-3.56.57-3.52,2.99.01.99-.36,1.58-1.03,2.16l-4.73,4.14c-.64.56-1.18,1.31-2.07,1.53-.73.18-1.6.26-1.94,1.01l-2.2,4.76c-.64,1.4-1.28,2.68-2.34,3.81-1.47,1.57-2.35,3.48-3.25,5.41-.36.78-.85,1.39-.78,2.35.08,1.09-.45,2.08-1.24,2.79-2.12,1.89-2.46,5.26-.75,6.31.59.36.86,1.04.42,1.61l-1.66,2.13c-1.75,2.24-.38,3.57-1.32,5.46l-2.11,4.23c-1.38,2.75.53,5.26-1.92,6.51-1.27.64-1.49,1.53-1.5,2.98-.02,3.08-.88,5.92-1.51,8.78-.63,2.86.82,5.32-2.35,8.26-1.78,1.65-2.51,3.87-3.18,6.14-.99,3.38-4.53,6.06-5.55,11.76-.59,3.26-3.11,5.7-3.69,3.86-1.56-4.96,1.3-8.88-.67-12.27-1.56,1.5-.93,3.54-3.09,6.66-.87,1.26-1.73,2.44-2.89,3.44-1.1.95-1.23,2.34-.74,3.71,1.49,4.16,1.79,6.96-1.58,10.14-1.19-1.39-2.4-2.24-3.99-2.88-.16-.86-.43-1.59-1.03-2.15-1.69-1.62-5.18,2.5-5.72,5.77l-.03,4.44c-1.35-.23-2.47.21-3.41,1.05-1.18,1.06-2.9,2.46-3.24,2.03-.07-.1-.04-.38-.04-.58l.08-3.79c.48-2.09,4.32-4.06,4.07-6.94l-.32-3.75c-.81,0-1.4.58-1.8,1.27-1.61,2.76-3.01,5.66-3.86,8.76l-.63,5.15c-.05.24.08.44.41.29.45,0,1.66.27,1.83.83.35,1.2.81,1.97,1.6,2.9l6.87,8.18c.79-.05,1.42-.62,2-1.23l3.29-3.46c.95-1,1.52-2.15,1.83-3.47l.96-4.06c2.96-1.01,5.5-2.81,6.92-5.55.64-1.23,1.5-2.1,2.36-3.17l3.11-3.85c.86-1.07,1.56-2.24,1.93-3.56l1.57-5.61c.55-1.95,1.18-3.71,2.11-5.5.96-1.84,1.97-3.63,2.59-5.62.56-1.81,1.37-3.36,2.83-4.61,1.88-1.61,3.44-3.42,4.98-5.36,1.47-1.84,2.62-3.71,3.29-6,.91-3.07,2.04-5.99,3.78-8.69.84-1.3,1.99-2.4,3.22-3.3,1.17-.86,1.77-1.75,2.22-3.12.7-2.1,1.98-4.01,3.17-5.87l1.5-3.18c1.29-2.74,3.51-6.93,2.65-9.16l-3.78,1.25c-1.02-3.06,1.83-3.84,2.81-6.5.59-1.59,1.48-3.46,2.93-4.46.86-.45,1.57.99,2.01,1.44.46.49,1.62.26,1.93-.12.79-.96.11-2.04-.35-2.75,1.08-1.94,3.48-2.56,5.52-3.03,2.05-.47,3.77-2.2,4.88-3.87.78-1.18,1.27-2.31,2.29-3.26,1.82-1.7,3.32-3.58,4.57-5.76,1.42-2.48,3.51-4.32,6.33-5.08l-.85,4.02c-.3,1.44-.35,2.77-.44,4.25l-.72,12.43c-.11,1.87.39,3.28,1.16,4.9,1.86,3.9,4.16,7.28,7,10.54,3.77,4.3,8.22,7.64,13.63,9.62,3.04,1.11,6.02,2.03,9.22,2.56,3.25.54,5.86.23,4.53-.52-3.51-2-7.38-1.3-11.17-6.56-1.47-2.05-6.05-3.2-7.69-6.23l-2.29-4.25c-.24-.44-.71-.8-1.11-.85-.66-.07-1.28.67-1.63.53-.27-.11-.32-2.2-1.5-4.53-.59-1.16-.5-2.46.32-3.48,1.02-1.27.26-2.42,1.16-4.52.36-.83.3-1.82-.36-2.41l-2.44-2.22c-.53-.48-.87-1.21-.57-1.92.75-1.76.83-3.52.99-5.4.14-1.72.21-3.18-.26-4.9-.3-1.1.44-2.61,1.33-3.22l2.09-.72c2-1.52,2.45-4.1,4.1-4.35,3.6-.53,4.27-4.77,6.86-5.37l2.76-.64c1.3-.55,2.58-1.01,4.02-1.02,3.25-.02,4.88-2.43,6.73-2.62,1.17-.12,2.2-.44,3.2-1.02l3.75-2.18,8-4.66c.74-.43,1.16-1.14,1.46-1.93l1.12-2.87c1.32-3.38,5.19-1.62,6.47-4.32,1.52-3.22,3.62-4.75,4.23-7.39.24-1.06.92-1.83,1.79-2.45l4.16-3c2.38-1.72,1.42-4.99,2.34-7.41.42-1.09,1.28-1.97,1.94-2.88.53-.74,1.28-.81,2.02-1.25.47-.28.2-1.52-.1-1.98-.57-.91-.26-1.96-.14-2.96.19-1.6.26-2.98,1.36-4.25.62-.72.87-1.82.77-2.75-.21-2.03,1.53-2.38,1.92-4.25.37-1.77,2.43-.19,3.29-2.02,1.51-.92,3.47-.76,4.79.46,1.42,3.64,6.77,5.34,7.55,3.26.54-1.43-.04-2.85-.98-3.92h.02ZM188.27,226.52c-.79,2-1.22,3.95-.95,6.12.27,2.19-1.33,3.26-.57,5.76.2.64.41,1.12.22,2.1-2.84-1.44-5.92-1.51-9.04-1.26-2.45.2-4.7.55-6.82,1.82l-5.93,3.56c-.74.44-1.4.91-2.25,1.12,1.89-3.28,3.9-6.23,6.23-9.2,5.64-7.19,11.57-13.93,17.85-20.55l4.93-5.18c-1.68,5.17-1.87,11.15-3.67,15.7h0ZM228.86,179.21c-.67.53-1.43.86-2.3,1.02-2.79-2.25-4.08,1.23-7.88,1.92-3.14.57-3.79,3.66-5.42,4.93-2.27,1.78-5.02,2.87-7.94,3.04,2.18-2.71,4.63-4.78,7.44-6.5l6.57-4c4.1-2.49,9.23-4.28,14.28-4.15l-4.76,3.74h0ZM252.83,197.09c.33-1.51,1.38-2.61,1.99-3.93,1.12-2.42,2.53-4.34,4.66-5.95,2.16-1.64,4.73-2.64,7.5-2.17-.07.47-.33.81-.61,1.05l-4.6,3.84-2.6,1.42c-2.17,1.18-1.54,6.88-5.58,7.54-.81.13-.84-1.28-.74-1.79h0ZM263.02,260.48c-.71,1.41-1.3,2.82-2.41,3.93l-2.47,2.48c-.56.56-1.22.77-1.9.7-.56-.05-1.08-.45-1.48-1.04l-1.51-2.28c-.43-.65-.5-1.44-.55-2.2-.19-3.1-3.17-2.26-3.6-2.84-.09-.13-.12-.4-.1-.65.43-1.5-.1-2.82-1.19-3.93-1-2.77-1.07-5.79-.35-8.66.41-1.65-1.38-3.87-2.8-5.05-1.63-1.35-2.89.4-3.43.32-.56-.07-.23-1.97-2.34-2.57-1.78-.51-2.67-1.85-3.07-3.52-.65-2.7-1.04-5.28-.72-8.06.28-2.44.19-4.9-.36-7.29-.25-1.11-.53-2.11-.2-3.24.84-2.87,3.54-9.66,5.4-9.61.42,0,.86.37,1.13.8l1.13,1.83c1.21,1.96,3.03-.78,6.73-.63,3.18.13,4.97-2.21,5.57-.69.51,1.3,1.37,2.24,2.14,3.37.89,1.31-.92,4.86-.97,8.13-.05,3.7.41,7.27.95,10.92l.25,5.75c.11,2.5.67,4.64,1.67,6.87l2.28,5.11,1.23,3.45c1.12,1.87,2.14,3.87,2.1,6.15-.01.92-.75,1.69-1.14,2.45h0ZM325,205.37c-.46,2.75-1.44,5.13-2.15,7.78-1.07,4.02-2.34,7.7-4.69,11.21-2.78,4.15-6.12,7.72-10.11,10.79-2.99,2.31-5.18,5.1-6.56,8.66-.86,2.23-1.87,4.26-3.36,6.15-1.08,1.37-1.89,3-3.37,4.04-1.74,1.21-4.01,2.12-6.16,2.18l-6.41.16v-2.45c.01-.57-.58-1.52-1.3-1.21-1.01.44-1.67,2.04-1.18,3.07.11.24.61.94.04.96-.82.04-1.76-.61-2.42-1.13-3.42-2.63-7.72-6.82-9.41-10.67l-3-6.81c-2.09-4.75-2.77-9.47-2.88-14.53-.1-4.27.51-8.21,2.65-11.93,1.79-3.11,2.94-7.02,1.31-10.23l-1.41-2.78c.97.43,2.08.75,2.8,1.59,1.2,1.39.04,3.9,2.14,4.21,1.71.25,3.37.67,4.95,1.36,1.36.59.38,2.26,2.03,4.74.54.81.77,1.68.74,2.67l-.06,2.33c-.04,1.62.84,2.96,2.29,3.65,2.84,1.36.15,4.16,2.98,6.32,1.83,1.4,2.38,2.92,3.34,2.9.42,0,1.12-.11,1.39-.61.81-1.52,1.74-3.06,2.13-4.8l1.95-8.8c.25-1.15-1.7-3.07-1.22-4.46.74-2.13,1.28-4.2,1.54-6.48.36-3.19.79-6.28.7-9.49-.6-1.73-.69-3.46-.16-5.19.25-2.18,1.23-3.97,2.58-5.63,1-1.23,1.61-2.72,1.2-4.29l-1.6-.27-4.06-2.06c-1.74-.89-3.56-.94-5.48-.16-.91-1.71.67-3.15-.14-4.82-.47-.97-.16-2.02.67-2.67,1.6-1.25,3.56-.78,6.21-1.99,2.07-.95,4.87,1.82,8.52,1.78,2.91-.03,1.94,2.66,5.1,2.88.86.06.9,1.15,1.26,1.67l3.75,5.35c1.43,2.04,2.02,4.63,2.04,7.13l.03,3.23c.28,1.66,1.86,3,3.56,2.39,2.06-.75,3.23-2.77,3.33-4.9.03-.74.19-1.74.85-2.08.96-.5,2.21,1.07,2.93.76,1.08-.46,1.14-4.58.49-7.09-.31-1.21-.19-2.42.68-3.34,1.12,1.71,1.7,3.51,2.07,5.44,1.5,7.72.16,17.54-1.17,25.45v.02s.01,0,.01,0Z"/>
                <path d="M298.73,239.95c.52-.76.5-1.42.05-2.01-1-1.32,1.13-2.42-.24-3.98-1.21-1.38.16-3.19,1.46-4.75,1.48-1.77.58-4.16,2.45-5.57.35-.26.82-.37,1.23-.24,1.29.38,1.63,3.32.29,4.71-.45.47-1.15.75-1.46,1.28-.91,1.54-.55,3.07-.06,4.69.45,1.5.49,3.34.09,4.89-.37,1.47-2.08,2.6-3.5,2.63-.63.01-.6-1.25-.32-1.66Z"/>
              </g>
            </g>
          </g>
        </g>
      </g>
      <g id="Capa_3">
        <circle class="st2" cx="300" cy="300" r="206.92"/>
      </g>
      <g id="Capa_6">
        <g>
          <path class="st1" d="M180.36,454.78c-2.29-1.77-3.55-3.88-3.78-6.32s.64-4.95,2.65-7.53c1.22-1.58,2.5-2.79,3.85-3.65,1.35-.86,2.68-1.34,4.01-1.45,2.63-.21,5.2.65,7.71,2.6,1.63,1.26,3.05,2.79,4.25,4.59.43.73.27,1.58-.48,2.55-1.03,1.33-1.88,1.73-2.57,1.2-.11-.09-.44-.44-.98-1.05-.54-.61-.94-1.02-1.19-1.22-.9-.7-1.89-.85-2.98-.47s-2.03,1.11-2.85,2.16c-.82,1.06-1.31,2.17-1.47,3.32-.17,1.16.14,2.05.9,2.7.51.44,1.44,1.19,2.81,2.24.66.51.73,1.17.21,1.98-.18.31-.38.61-.6.89s-.46.56-.73.82c-.51.5-1.18.62-2.01.39-.83-.24-1.91-.73-3.25-1.48s-2.49-1.5-3.48-2.27h0Z"/>
          <path class="st1" d="M204.55,446.18l5.47,3.44c.57.36.84.77.81,1.23s-.36,1.25-.98,2.38c-.62,1.12-1.91,3.24-3.87,6.35s-3.45,5.37-4.47,6.75c-.28.36-.63.61-1.06.75s-.84.11-1.26-.1c-.81-.42-1.74-.95-2.76-1.6-1.02-.64-1.97-1.28-2.84-1.92-.38-.28-.59-.64-.64-1.09s.02-.87.22-1.28c.81-1.52,2.19-3.84,4.14-6.96,1.96-3.11,3.31-5.2,4.05-6.24.74-1.04,1.31-1.68,1.71-1.91s.89-.17,1.46.19h0s0,0,0,0Z"/>
          <path class="st1" d="M206.35,468.99l7.08-14.24c.84-1.39,1.73-1.9,2.67-1.51.65.31,4.97,2.45,12.93,6.43.86.43.91,1.42.13,2.98-.39.79-.97.99-1.73.61l-4.7-2.35c-.3-.15-.61-.15-.91,0-.3.16-.55.43-.75.83l-.93,1.86c-.27.54-.22.91.16,1.09l3.58,1.79c.35.17.56.4.63.67.08.28-.06.76-.4,1.45-.35.69-.65,1.09-.91,1.2-.26.11-.58.07-.95-.12l-3.22-1.61c-.36-.18-.66-.2-.9-.06s-.47.44-.7.89l-2.25,4.5c-.31.61-.64,1.01-1.01,1.2s-.72.2-1.06.02l-6.12-3.06c-.41-.2-.67-.54-.8-1-.13-.47-.07-1,.16-1.61h0Z"/>
          <path class="st1" d="M226.56,477.74c.35-.88.91-1.52,1.68-1.93.78-.41,1.61-.43,2.51-.08.9.36,1.44.92,1.64,1.69s.14,1.55-.17,2.34-.86,1.41-1.63,1.84c-.78.44-1.56.5-2.34.19s-1.35-.84-1.69-1.6c-.34-.75-.34-1.57,0-2.45h0ZM231.42,465.46c.35-.88.91-1.52,1.68-1.93.78-.41,1.61-.43,2.51-.08.9.36,1.44.92,1.64,1.69s.14,1.55-.17,2.34-.86,1.41-1.63,1.84c-.78.44-1.56.5-2.34.19s-1.35-.84-1.69-1.6c-.34-.75-.34-1.57,0-2.45h0Z"/>
          <path class="st1" d="M264.61,475.85c-1.41-.32-2.5-.1-3.27.65-.77.76-1.38,2.09-1.82,4.02-.69,3.03-.3,4.7,1.16,5.04.3.07.5.1.6.1-.19-.04-.25-.48-.19-1.3s.2-1.68.4-2.55.52-1.4.98-1.57c.45-.17,1.02-.17,1.72-.01.7.16,1.18.27,1.45.35s.58.18.91.33.59.31.74.48c.37.41.48.91.35,1.52l-.95,4.17c-.34,1.48-.82,2.62-1.46,3.41s-1.58,1.12-2.82,1c-1.74-.18-4.35-.66-7.83-1.45-1.4-.32-2.53-.85-3.41-1.62-.87-.76-1.48-1.68-1.81-2.75-.6-2-.59-4.36.03-7.1s1.89-5,3.82-6.8c1.93-1.81,4.1-2.51,6.54-2.12,1.67.26,2.87.47,3.61.64,2.68.61,4.54,1.24,5.58,1.9.71.44.92,1.28.64,2.52-.38,1.65-.97,2.4-1.76,2.21-.25-.08-.74-.25-1.46-.51-.73-.26-1.31-.45-1.73-.54h0,0Z"/>
          <path class="st1" d="M279.54,473.24l8.46.95c.59.06.99.19,1.2.39.32.31.41,1.15.27,2.53-.07.7-.23,1.28-.49,1.76-.25.47-.89,1.66-1.9,3.55s-1.72,3.21-2.12,3.93c-1.25,2.32-2.55,4.57-3.91,6.74-.27.42-.51.7-.73.83-.21.13-.55.18-1,.13-3.37-.36-5.64-.65-6.79-.89-.78-.16-1.13-.57-1.06-1.23.04-.37.21-.82.53-1.36,1.71-2.86,3.19-5.28,4.44-7.23s2.02-3.18,2.31-3.66c.29-.48.45-.8.46-.95.04-.41-.12-.63-.49-.67l-4.64-.37c-.34-.03-.57-.24-.69-.61s-.16-.82-.1-1.34c.05-.51.14-1.04.24-1.6.11-.55.27-.91.5-1.08.23-.17.81-.23,1.75-.17s2.19.17,3.76.34h0Z"/>
          <path class="st1" d="M294.26,489.76l3.04.1c.9-.01,1.6-.27,2.08-.77.3-.3.45-.69.44-1.18-.02-1.25-.65-1.86-1.89-1.84-.45,0-.96.08-1.54.23s-.92.22-1.03.22c-.69,0-1.05-.69-1.07-2.12,0-.61.07-1,.24-1.18.18-.18.4-.29.67-.33.27-.04.63-.07,1.08-.09.45-.01.84-.04,1.18-.06.95-.11,1.6-.35,1.97-.71.37-.36.54-.81.53-1.36,0-.55-.18-.96-.51-1.25-.34-.29-.76-.42-1.27-.42-1.01.01-2.03.58-3.06,1.69-.16.16-.35.24-.56.24-.21,0-.42-.16-.62-.49-.3-.44-.45-1.09-.46-1.93s.08-1.42.3-1.76.63-.7,1.25-1.09,1.56-.78,2.8-1.16c1.25-.38,2.43-.58,3.55-.6,1.12-.02,2.04.05,2.79.2s1.48.42,2.21.8c.73.38,1.32.94,1.78,1.67.45.74.69,1.61.71,2.61.01,1.01-.19,1.9-.61,2.69s-1.03,1.32-1.83,1.61c1.08.45,1.91,1.14,2.47,2.07.56.93.85,1.97.87,3.12.03,2.23-.66,3.93-2.07,5.11-1.42,1.19-3.21,1.8-5.36,1.83-3.89.06-6.59-.2-8.12-.78-.73-.28-1.15-.77-1.25-1.47-.03-.23-.06-.6-.06-1.08s0-.85.03-1.08c.06-.96.52-1.44,1.35-1.46h0s0,0,0,0Z"/>
          <path class="st1" d="M332.69,488.2l-.55.1c.07.66.13,1.46.18,2.4,0,.45-.11.87-.34,1.25s-.58.62-1.04.72c-.9.19-1.95.37-3.14.51-1.2.15-2.33.25-3.41.31-.47.02-.86-.13-1.19-.44s-.55-.76-.68-1.33c-.13-.58-.26-1.29-.41-2.16l-5.24.66c-.82.06-1.43,0-1.83-.17-.41-.18-.64-.58-.73-1.22l-.2-1.36c-.1-.78-.02-1.43.23-1.98,1.55-3.4,3.69-7.33,6.43-11.79.24-.28.61-.46,1.1-.52l6.41-.81c.67-.08,1.14.06,1.41.44.27.38.5,1.13.71,2.25s.55,3.61,1.03,7.44l.15,1.16.5-.06c.34-.04.61.06.83.32.22.26.35.55.39.88l.21,1.68c.13,1.01-.16,1.58-.85,1.7h0ZM318.57,484.79c.04.35.22.5.52.46l2.39-.3-.61-4.88c-.26.47-.53.94-.78,1.42-.25.48-.52.98-.79,1.49s-.46.88-.59,1.14-.17.47-.15.67Z"/>
          <path class="st1" d="M344.56,468.82c.66-.16,1.14-.06,1.44.29s.59.98.86,1.9c.64,2.16,1.34,4.78,2.07,7.89s1.27,5.69,1.6,7.76c.06.45,0,.87-.2,1.28-.19.41-.51.68-.96.83-.87.29-1.9.57-3.07.85-1.17.28-2.29.5-3.36.68-.48.07-.9-.03-1.26-.32-.37-.28-.61-.63-.72-1.05-.74-2.57-1.4-5.04-1.96-7.4-.56-2.36-.93-3.94-1.1-4.72l-1.07.17c-.7.11-1.17-.35-1.42-1.36-.24-1.02-.33-1.71-.27-2.07s.36-.68.89-.95c2.93-1.52,5.77-2.78,8.52-3.77h0Z"/>
          <path class="st1" d="M353.92,481.29c-.81-2.34-.45-4.35,1.09-6.02-1.68-.57-2.74-1.49-3.18-2.75s-.43-2.46.02-3.59c.83-2.15,2.67-3.72,5.53-4.72,2.7-.94,4.99-.93,6.85.03.96.49,1.61,1.24,1.95,2.24.56,1.61.37,3.1-.58,4.48,2.4.55,4.02,2.01,4.85,4.39.47,1.35.44,2.68-.07,4.01-.52,1.33-1.35,2.46-2.49,3.41-1.14.95-2.43,1.67-3.86,2.17-1.42.5-2.8.73-4.1.69-1.31-.04-2.52-.42-3.63-1.14-1.11-.72-1.91-1.78-2.4-3.18h0s0,0,0,0ZM357.59,469.34c.26.74,1.03,1.16,2.33,1.26.26-.61.28-1.24.05-1.91-.14-.39-.35-.67-.63-.86-.29-.19-.61-.22-.97-.1s-.61.35-.74.66c-.14.32-.15.63-.04.95ZM363.55,478.09c-.28-.79-1.21-1.36-2.79-1.69-.3.7-.33,1.39-.1,2.06s.56,1.09.98,1.26.81.19,1.18.05.61-.36.73-.69.11-.66,0-.99h0Z"/>
          <path class="st1" d="M374.3,473.93c-1.08-2.23-.95-4.27.39-6.11-1.74-.38-2.89-1.16-3.47-2.37s-.71-2.39-.39-3.57c.58-2.23,2.23-4.01,4.95-5.32,2.58-1.24,4.85-1.5,6.81-.76,1.01.38,1.74,1.04,2.2,1.99.74,1.53.72,3.04-.06,4.52,2.45.27,4.23,1.53,5.32,3.8.62,1.28.75,2.61.39,3.99-.36,1.38-1.05,2.6-2.08,3.67-1.02,1.07-2.22,1.94-3.58,2.6-1.36.66-2.69,1.04-4,1.15-1.3.11-2.55-.13-3.73-.71-1.19-.59-2.1-1.55-2.75-2.88h0ZM376.58,461.64c.34.7,1.16,1.03,2.46.99.19-.63.14-1.27-.17-1.9-.18-.37-.42-.63-.73-.79s-.63-.15-.97.01-.56.41-.66.74c-.1.33-.08.64.07.94h0ZM383.5,469.64c-.37-.76-1.35-1.21-2.96-1.36-.21.73-.17,1.42.14,2.06.31.64.68,1.02,1.11,1.14s.82.09,1.18-.08.57-.43.64-.77c.08-.34.04-.67-.12-.99h0Z"/>
          <path class="st1" d="M391.5,448.54l7.22-4.5c.5-.32.89-.46,1.18-.43.44.04,1.04.65,1.78,1.82.38.6.61,1.16.71,1.68s.34,1.85.71,3.97c.38,2.12.63,3.58.77,4.4.46,2.6.83,5.17,1.12,7.72.05.5.03.87-.05,1.11s-.32.48-.7.72c-2.86,1.82-4.83,2.99-5.88,3.51-.71.36-1.24.25-1.59-.31-.2-.31-.34-.78-.42-1.4-.44-3.3-.78-6.11-1.01-8.42s-.39-3.74-.45-4.3c-.07-.56-.14-.9-.22-1.03-.22-.35-.48-.42-.8-.22l-3.87,2.59c-.28.18-.59.16-.92-.06-.33-.22-.63-.55-.91-.99s-.54-.9-.8-1.4-.35-.88-.28-1.16c.07-.28.49-.68,1.27-1.22.77-.54,1.83-1.22,3.16-2.07h0s0,0,0,0Z"/>
          <path class="st1" d="M413.22,452.32l2.46-1.79c.7-.57,1.09-1.19,1.18-1.88.05-.42-.07-.82-.38-1.2-.78-.98-1.65-1.07-2.62-.3-.35.28-.71.66-1.07,1.13s-.59.74-.68.81c-.54.43-1.25.09-2.15-1.02-.38-.47-.56-.83-.53-1.08s.14-.47.33-.67c.19-.2.45-.45.8-.74s.64-.55.89-.78c.68-.67,1.05-1.26,1.12-1.76s-.07-.97-.41-1.4-.73-.65-1.18-.67c-.44-.02-.86.13-1.26.45-.79.63-1.25,1.7-1.38,3.21-.03.22-.13.4-.29.54s-.43.14-.79,0c-.51-.17-1.02-.58-1.55-1.23s-.81-1.18-.84-1.57c-.04-.4.07-.94.32-1.63.25-.69.75-1.57,1.5-2.64.75-1.07,1.56-1.95,2.44-2.65s1.64-1.22,2.33-1.55c.68-.33,1.42-.58,2.24-.72.81-.15,1.62-.07,2.43.23s1.53.84,2.16,1.63c.63.79,1.02,1.62,1.17,2.5.15.88,0,1.68-.46,2.4,1.13-.31,2.21-.27,3.22.12,1.01.39,1.88,1.03,2.6,1.93,1.4,1.73,1.89,3.5,1.5,5.31s-1.43,3.38-3.11,4.73c-3.03,2.44-5.33,3.89-6.89,4.37-.75.22-1.38.09-1.89-.4-.17-.16-.41-.43-.72-.81s-.52-.67-.64-.87c-.54-.8-.48-1.45.17-1.98h0Z"/>
        </g>
        <g>
          <path class="st1" d="M173.85,153.38l17.36,5.42c.7.21,1.19.47,1.47.79s.37.66.26,1.04-.34.72-.67,1.03l-6.76,6.11c-.69.62-1.24.89-1.66.81-.13-.03-.34-.11-.63-.23l-1.79-.75c-.55-.24-1.19-.09-1.91.46l-3.97,3.58c-.29.26-.49.5-.6.69s-.12.43-.04.72l.72,2.44c.09.38.09.69,0,.93s-.29.51-.61.8l-1.89,1.71c-.55.49-1.02.56-1.42.21-.06-.04-.12-.09-.17-.15-.29-.32-.46-.73-.52-1.21l-3.89-17.53c-.36-1.66.18-3.13,1.59-4.41l1.68-1.52c1.12-1.01,2.27-1.33,3.46-.95h0s0,0,0,0ZM171.9,164.9l.76,2.79c.06.18.13.31.22.41.33.37.67.39,1.02.07l1.91-1.73c.29-.26.43-.52.41-.77-.02-.25-.08-.43-.18-.54-.1-.11-.22-.2-.37-.28l-2.43-1.09c-.5-.21-.88-.2-1.15.04-.27.24-.33.61-.2,1.09h0Z"/>
          <path class="st1" d="M203.36,130.55c.32-.2.58-.15.79.17.14.2.19.48.17.83l.19,11.88c.83,1.28,2.02,3.17,3.53,5.67.21.36.27.78.18,1.25s-.37.89-.82,1.23c-.86.65-1.92,1.39-3.19,2.22s-2.44,1.55-3.54,2.18c-.49.28-.98.37-1.45.26s-.83-.33-1.08-.66c-1.07-1.58-2.17-3.22-3.3-4.94l-10.03-4.9c-.47-.21-.79-.43-.94-.67-.52-.79-.39-1.44.39-1.94l8.07-5.34c.46-.3.85-.45,1.17-.46.32,0,.79.11,1.39.34l3.47,2.16c.48.18.8.22.97.11.17-.11.27-.38.33-.82l-.06-5.37c.05-.51.28-.89.69-1.16l3.08-2.01v-.02h0Z"/>
          <path class="st1" d="M219,126.18l1.04,2.36,2.31,4.95c.34.72.82,1.17,1.44,1.36.63.19,1.24.14,1.84-.14.6-.28,1.02-.72,1.27-1.31.25-.6.21-1.25-.13-1.97l-3.57-7.64c-.38-.81-.55-1.44-.51-1.92s.41-.88,1.13-1.22l2.36-1.1c.55-.25,1-.27,1.36-.04.66.4,1.91,2.55,3.74,6.47.6,1.28,1.04,2.27,1.33,2.97.6,1.41.85,2.79.77,4.15s-.43,2.58-1.05,3.66c-1.25,2.19-3.05,3.83-5.41,4.93-3.11,1.45-6.02,1.93-8.74,1.43-1.37-.25-2.64-.85-3.8-1.8s-2.13-2.23-2.91-3.85c-.4-.8-.96-1.98-1.69-3.54s-1.24-2.7-1.52-3.42c-.28-.71-.39-1.31-.33-1.78.06-.47.44-.88,1.14-1.21l6.85-3.2c.68-.32,1.22-.35,1.61-.1.51.33.99.98,1.44,1.95h0Z"/>
          <path class="st1" d="M250.15,132.25c-1.18.48-2.89,1.07-5.14,1.77s-3.8,1.14-4.64,1.33c-.84.19-1.5.23-1.99.13s-.82-.41-1.02-.9c-.71-1.91-1.45-4.12-2.23-6.62-.77-2.5-1.56-5.15-2.35-7.97-.5-1.74.02-2.91,1.55-3.5,1.08-.41,2.75-.97,5.02-1.67s4.06-1.22,5.37-1.56,2.65-.42,4.01-.26c1.36.16,2.54.56,3.52,1.18,2.04,1.29,3.41,3.08,4.12,5.39.75,2.44.64,4.85-.34,7.24-.47,1.15-1.22,2.22-2.23,3.18-1.02.97-2.24,1.72-3.67,2.26,0,0,.01,0,.01,0ZM244.91,119.59l2.03,6.54c.04.15.14.26.29.36s.31.11.49.05c1.15-.36,1.92-1.03,2.29-2.02.38-.99.4-2.02.06-3.1-.34-1.08-.91-1.94-1.73-2.56-.81-.62-1.7-.79-2.65-.5-.23.07-.41.14-.53.2-.32.2-.4.54-.24,1.02h0Z"/>
          <path class="st1" d="M275.89,108.08l11.45,14.13c.46.56.73,1.05.79,1.47s-.06.76-.37,1.02c-.31.25-.68.41-1.13.48l-9.01,1.34c-.91.14-1.53.05-1.84-.24-.09-.1-.22-.28-.4-.54l-1.07-1.62c-.32-.5-.94-.73-1.84-.67l-5.29.79c-.39.06-.68.14-.88.24-.2.11-.34.3-.43.58l-.76,2.43c-.14.37-.31.62-.51.78-.2.16-.52.26-.95.33l-2.52.38c-.73.11-1.16-.09-1.29-.61-.03-.07-.05-.15-.06-.22-.06-.43.01-.86.24-1.29l6.47-16.75c.62-1.58,1.88-2.51,3.76-2.79l2.24-.33c1.49-.22,2.63.16,3.4,1.13h0s0,0,0,0ZM267.88,116.59l-.91,2.74c-.05.18-.06.34-.04.46.07.49.34.69.81.62l2.55-.38c.39-.06.65-.2.77-.41.12-.22.17-.4.15-.55-.02-.15-.07-.29-.15-.43l-1.42-2.25c-.3-.45-.62-.65-.98-.6s-.61.32-.77.8h0Z"/>
          <path class="st1" d="M319.75,107.58l8.01,16.32c.33.65.47,1.19.44,1.61s-.22.73-.58.91-.76.25-1.21.22l-9.09-.71c-.92-.07-1.5-.29-1.74-.64-.07-.12-.16-.32-.26-.61l-.68-1.82c-.2-.57-.75-.92-1.65-1.06l-5.33-.41c-.4-.03-.7-.01-.91.04-.21.06-.4.21-.55.47l-1.28,2.2c-.21.32-.44.54-.67.64-.23.1-.57.14-1,.11l-2.54-.2c-.73-.06-1.11-.35-1.12-.88-.01-.08-.01-.15,0-.23.03-.43.2-.83.52-1.21l10.05-14.89c.96-1.4,2.39-2.03,4.29-1.88l2.26.18c1.5.12,2.53.74,3.06,1.86h-.01s0,0,0,0ZM310.04,114.09l-1.5,2.46c-.09.16-.14.31-.15.44-.04.49.18.75.65.79l2.57.2c.4.03.67-.05.84-.23s.25-.35.27-.5c0-.15,0-.3-.05-.46l-.88-2.51c-.19-.51-.46-.78-.81-.8-.36-.03-.67.18-.93.61h0Z"/>
          <path class="st1" d="M352.52,112.34l2.95.7c.62.15,1.03.36,1.23.61.2.26.23.71.1,1.33-.56,2.82-1.22,5.83-1.99,9.04s-1.4,5.54-1.88,7c-.14.41-.39.76-.76,1.04-.37.28-.78.37-1.24.25l-4.6-1.1c-.64-.15-1.29-.55-1.96-1.2-3.66-3.53-5.97-5.7-6.94-6.52-.2-.15-.39-.16-.56-.03s-.31.4-.41.82l-.73,3.05c-.08.35-.28.6-.59.73-.46.22-1.49.14-3.08-.24-.44-.11-.87-.22-1.28-.35s-.71-.4-.9-.81c-.19-.41-.23-.82-.16-1.23.47-2.22,1.11-4.99,1.9-8.32s1.33-5.5,1.59-6.51c.26-1.01.55-1.69.87-2.05s.79-.46,1.42-.32l3.03.73c.62.15,1.22.48,1.8.99,4.98,4.32,7.89,6.83,8.73,7.53.28.22.52.3.73.23.21-.07.35-.24.42-.54l.92-3.86c.09-.37.26-.65.51-.84.25-.19.54-.25.87-.17h0s0,0,0,0Z"/>
          <path class="st1" d="M363.46,115.84l7.12,2.61c.74.27,1.17.64,1.27,1.1.1.46-.02,1.28-.37,2.47-.35,1.19-1.13,3.46-2.36,6.79-1.22,3.34-2.19,5.76-2.91,7.27-.2.39-.52.68-.94.89-.43.2-.9.23-1.43.08-1.03-.3-2.22-.69-3.55-1.18-1.33-.49-2.57-.99-3.73-1.49-.5-.22-.85-.55-1.04-.99-.2-.43-.24-.86-.15-1.29.43-1.61,1.26-4.08,2.48-7.43,1.22-3.34,2.09-5.57,2.6-6.71s.95-1.84,1.32-2.12c.38-.28.94-.29,1.68-.02h0Z"/>
          <path class="st1" d="M385.27,126.51c.22,1.09.41,2.45.59,4.08.17,1.63.31,2.73.42,3.3.11.57.26.9.45,1s.42.08.68-.06c.26-.14,1.25-.69,2.96-1.65,1.71-.96,3.07-1.66,4.09-2.1s1.71-.57,2.09-.4.86.41,1.44.72,1.26.68,2.03,1.12c.77.44,1.19.92,1.25,1.43s-.06,1.12-.37,1.83c-.81,1.81-1.98,4.17-3.48,7.07s-2.78,5.15-3.8,6.75c-.24.39-.58.66-1.02.84s-.88.15-1.35-.1c-1.03-.51-2.17-1.1-3.42-1.74-1.25-.65-2.23-1.19-2.94-1.62-.26-.16-.44-.39-.55-.69-.11-.3-.09-.61.06-.94l2.01-4.22c.19-.41.22-.68.09-.81s-.34-.1-.61.1c-1.71,1.11-3.72,2.29-6.06,3.55-.57.32-1.12.35-1.63.07-.52-.27-.82-.74-.9-1.4-.15-1.14-.22-3.44-.22-6.88,0-.21-.04-.36-.13-.45-.09-.09-.21-.1-.36-.02-.15.07-.29.24-.42.51l-2.28,4.08c-.18.31-.46.49-.82.54-.37.05-.73,0-1.09-.17l-2.48-1.29c-.44-.25-.73-.6-.84-1.04-.12-.44-.1-.87.04-1.28.64-1.56,1.78-3.91,3.41-7.05,1.63-3.14,2.87-5.42,3.72-6.85.41-.68.86-1.14,1.33-1.39s1.04-.19,1.73.17c3.52,1.83,5.4,2.84,5.66,3.04.26.2.5.84.72,1.94h0Z"/>
          <path class="st1" d="M420.21,148.47l-2.07,18.07c-.07.72-.24,1.25-.5,1.6-.26.34-.58.49-.98.45s-.78-.2-1.14-.47l-7.27-5.5c-.74-.56-1.11-1.05-1.11-1.48,0-.14.04-.36.11-.66l.41-1.89c.14-.59-.14-1.18-.81-1.79l-4.27-3.23c-.32-.24-.58-.39-.79-.46-.21-.06-.45-.03-.71.1l-2.26,1.16c-.36.16-.66.21-.92.18s-.56-.19-.9-.45l-2.03-1.54c-.59-.44-.74-.89-.47-1.35.03-.07.07-.14.11-.2.26-.35.62-.59,1.09-.74l16.49-7.11c1.57-.66,3.11-.41,4.63.73l1.81,1.37c1.21.91,1.73,1.98,1.58,3.22h0ZM408.52,148.71l-2.59,1.27c-.16.09-.28.19-.37.29-.3.39-.26.73.12,1.02l2.05,1.56c.32.24.6.33.83.26.24-.07.41-.16.5-.28s.16-.26.2-.41l.61-2.59c.12-.53.03-.9-.25-1.12-.29-.21-.65-.21-1.11,0h0Z"/>
          <path class="st1" d="M435.18,169.53l-4.07,3.94c-.6.58-.95,1.1-1.06,1.57s.12.99.68,1.57l5.01,5.11c.6.63.42,1.41-.5,2.32-.71.7-1.32,1.12-1.82,1.26-.49.14-1.02-.05-1.56-.58-1.91-1.85-3.78-3.7-5.61-5.56-1.82-1.86-4.13-4.25-6.93-7.16-.47-.48-.74-1-.81-1.53-.06-.53.1-1.02.47-1.47,1.07-1.26,2.86-3.12,5.39-5.6s4.27-4.11,5.21-4.92,1.65-1.25,2.13-1.35c.47-.09.98.13,1.52.69l5.31,5.42c.56.57.77,1.09.65,1.56-.12.47-.49,1.05-1.11,1.74-.62.69-1.6,1.68-2.93,2.99h0s0,0,0,0Z"/>
        </g>
      </g>
    </g>
  </g>
</svg>