<?xml version="1.0" encoding="UTF-8"?>
<svg xmlns="http://www.w3.org/2000/svg" version="1.1" viewBox="0 0 862.02 862.02">
  <!-- Generator: Adobe Illustrator 30.6.0, SVG Export Plug-In . SVG Version: 2.1.4 Build 109)  -->
  <defs>
    <style>
      .st0 {
        fill: #1d1d1b;
      }

      .st1 {
        fill: none;
        stroke: #000;
        stroke-miterlimit: 10;
        stroke-width: 14px;
      }
    </style>
  </defs>
  <g id="Capa_1">
    <g id="Objeto_generativo">
      <g>
        <g>
          <path d="M715,453.66c-.92,2.15-3.02,2.71-4.58,2.26-2.14-.62-3.09-2.71-2.69-4.86.3-1.64,1.1-3.19,2.31-3.66,1.63-.64,3.81-.62,4.75.92s.91,3.71.21,5.34Z"/>
          <g>
            <path d="M523.55,435.03l-8.42,1.39c-1.17.19-2.09-.18-2.92-.88-.6-.51-1.53-1.73-.66-2.94.94-1.31,3.46-2.64,5.26-2.51,3.55.25,6.85,1.85,9.59,3.79-.63,1.2-1.65.95-2.86,1.15Z"/>
            <path d="M508.17,430.91c-.07,2.04-3.27,2.93-4.65,2.95-2.2.03-3.44-1.22-4.04-2.93-.56-1.57-.24-3.74,1.78-4.65,2.69-1.22,7.02,1.09,6.91,4.63Z"/>
            <path d="M544.61,485.89c-.25,1.73-1.15,2.94-2.42,3.32s-2.86.34-3.79-.83c-.87-1.09-.83-2.54-.37-3.77.43-1.13,1.56-2.18,3.08-2.38,1.02-.13,1.89.15,2.51.69.7.62,1.18,1.58.98,2.96Z"/>
          </g>
          <path d="M706.56,468.13c.28.99.21,1.9-.13,2.52-.81,1.49-4.4,2.16-6.02.51-1.03-1.05-1.17-2.59-.55-3.98.54-1.21,1.92-1.83,3.52-1.73s2.69.95,3.17,2.67Z"/>
          <path d="M782.35,415.91c-.86-4.43-2.18-8.66-4.31-12.62-1.17-2.18-3.14-3.61-5.35-4.6l-14.94-6.76-19.71-9.74-50.24-21.07-21.45-9.36-12.09-5.27-18.41-10.17c-14.96-8.26-28.82-17.98-41.56-29.33-2.96-2.64-5.5-5.51-6.89-9.17-2.08-5.47-2.67-11.21-2.83-17.01l-.23-8.57c-.15-5.38-5.39-6.62-6.25-12.66-.37-2.63-1.59-4.06-3.32-5.92l-18.51-19.91c-3.05-3.28-6.95-5.37-11.18-6.54.29,2.16,1.64,3.65,3.12,5.02l9.23,8.49c1.95,1.8,3.55,3.71,4.79,6.05l3.59,6.78c-3.9.26-6.72-5.28-11.55-1.45-1.93,1.53-4.63,1.22-6.28-.63-2.34-2.63-5.85-.49-6.48-1.74-.91-1.82-.85-3.99-1.36-5.91-.7-2.63-2.83-3.72-5.41-3.02-2.87.78-5.26,2.64-6.4,4.8-3.2,6.07,1.78,9.16-.37,12.67l-5.92,9.65c-.43.7-.59,1.79.13,2.47,3.35,3.18,7.39,5.84,11.95,7.03,4.18,1.09,8.27.32,12.61-.36.31,1.88-1.11,3.68-2.91,4.41-5.24,2.11-4.08,6.59-8.67,8.65-4.91,2.2-4.25,7.23-8.22,8.68-3.82,1.39-5.78,7-12.08,8.24-3.88.77-3.2,4.33-7.13,6.73-3.79,2.31-1.29,5.94-2.35,10.68-.28,1.25.51,2.36,1.75,2.55,4.47.67,3.85,5.54,5.78,5.51,1.28-.02,3.61-2.48,4.61-.97.74,1.12-1.52,3.69.08,7.92.34.89-.06,1.97-.62,2.41-1.47,1.13-4.43-.55-6.89,1.75-2.79,2.61-.1,5.88-3.46,9.77-3.56,4.12.11,7.57-2.75,11.97-1.1,1.69-1.45,3.56-1.7,5.6l-.71,5.81c-.2,1.62-.13,3.07.59,4.49-1.12.44-1.91,1.14-2.22,1.98-.31.86-.11,1.81.3,2.74,2.21,4.97,8.24,5.48,12.63,9.42,1.96,1.76,1.55,6.54,7.53,8.53l5.81,1.93,6.67,5.52c1.79,1.48-1.9,6,.66,6.7l7.45,2.03c1.53.41,3.13.04,4.1-.83,2.57-2.3.15-6.43,2.82-7.09,1.68-.41,5.26-.28,6.34,1.58,1.25,2.17.81,5.73.03,7.95-.68,1.92-4.9.69-5.97,2.14-.49.66-.49,1.69-.1,2.42l3.96,7.32c.4.73,1.08,1.26,1.78,1.21,1.89-.12,2.84-4.71,6.63-3.54,2.78.85,5.4.99,8.54,1.02-1.18,3.35-1.78,6.44-1.79,9.8-4.19,1.34-8.44.15-12.68.15-3.11,0-5.28-.37-8.15-1.71-1.54-.72-4.7.85-6.22-.25-.77-1.35-.85-3.48-2.42-4.52-3.76-2.49-8.84,1.46-10.75,6.15,2.45,1.65,5.34-.86,7.61,0,1.29,1.16-.31,2.87-.98,3.79-1.17,1.61-2.09,2.38-4.24,2.57l3.51,4.1c1.57,1.84,3.41,3.63,6.02,3.31,2.4-.3,4.6.1,7,.49,3.46.56,9.22-4.21,13.41-.41.7.64,1.18,1.64,1.06,2.33-.44,2.46-7.65,3.62-12.43,3.43-2.2-.09-5.92,1.94-4.64,4.38,1.27,2.42,5.49,2.2,7.74,2.77-.41,2.09-2.49,3.15-3.39,4.61-.73,1.18,1.02,2.55,1.96,2.59l5.3.2c-.04,2.89-5.45,2.83-5.53,5.78-.06,2.36,4.43,4.1,3.33,6.98-1.08,2.81-6.39.91-10.2,7.88-1.85,3.39-5.49,5.17-9.23,4.27-7.82-1.88-17.34,1.9-28.09,1.47-2.87-.12-5.38-.75-8.29-.19-3.37.64-6.7-.24-9.79-1.44-5.8-2.26-14.21-5.22-17.85-.55,2.55,1.73,5.24,4.08,8.33,4.33l12.49,1c1.66.13,2.43,1.88,3.72,2.81,7.18,5.23,16.19,1.85,25.19,3.27,6.97,1.1,13.45-.16,19.69-3.17l29.49-14.21c1.94-.93,3-2.22,3.5-4.38l3.92-16.81,4.9-27.55-.28-16.08c-.07-3.92-.36-8.3.79-12.09,2.62-8.62,8.41-15.78,14.84-21.8,3.4-3.18,5.54-6.62,6.84-11.08,1.74-5.97,2.13-12.18,1.38-18.41-.59-4.87-4.56-7.84-4.24-14.1.23-4.45-4.63-5.36-5.21-9.36l-.99-6.78c1.64-.02,2.65.25,4.23-.26l-7.51-7.35c-6.28-5.34-9.7-13.62-7.32-21.96,3.95,4.12,7.82,7.43,12.09,10.71l9.82,7.52c7.25,5.55,14.28,10.75,21.97,15.7,6.44,4.14,12.36,8.66,19.41,11.72l13,5.64,18.85,7.98c10.82,4.58,12.46,7.37,19.19,15.9,1.38,1.75,4.06,2.06,5.91,3.16l14.13,8.39c1.33.79,2.42,1.82,3.4,3.11l-8.07,3.66c-3.7,1.68-8.39,3.57-5.88,6.64,2.65,3.25,5.79,6.14,9.75,7.28,6.27,1.8,10.39-4.94,10.49-4.96.55-.11.58.2.73.71l2.85,9.68-.18,7.48c-.14,5.79-.09,14.29-4.12,16.69-2.58,1.53-4.97,3.58-5.51,6.61l-1.07,5.96c-.73,4.06,2.11,7.51,6.08,8.39,2.34.52,4.59-.28,5.98-1.88,3.35-3.85-.43-8.58-.4-13.84.01-2.21,1.09-4.2,2.86-4.97,1.71-.75,4.63-.44,5.59,1.4l7.15,13.67c1.69,3.23,2.8,6.99,2.32,10.65-.55,4.2-3.01,7.47-5.14,10.89-3.86,6.19-8.5,11.19-14.15,15.77-6.52,5.29-13.07,10.17-20.61,13.96l-13.13,7.7c-9.77,5.13-20.8,7.13-31.76,7.95-2.7.2-5.21-.43-7.68-1.01l-12.28-2.88-18.48-4.07c-9.3-2.05-18.75-2.66-28.25-2.4-5.32.15-9.8,2.8-12.42,7.07-3.14-.79-5.71-.01-8.38,1.23-11.44,5.32-16.53,6.93-29.95,4.71l-33.28-5.51-11.3-.93-17.4-2.56-10.74-1.51c-3.22.03-6.24-.87-9.23-1.89l-10.3-3.51c-1.74-.59-3.43.34-3.82,2.08l-.93,4.25c-.15.69-.44,1.24-.91,1.49-.46.24-1.16.3-1.77.01l-4.75-2.18c-3.42-1.57-6.95-.63-10.19,1.25l-3.81,2.22c-2.3,1.34-2.26-4.24-4.96-5.32-2.43-.97-5.93.91-6.21,3.58-.56,5.37,5.32,9.42,3.3,12.97-.9,1.58-2.42,2.83-3.63,4.1-4.46,4.69,1.64,7.88,1.46,9.87-.21,2.25-4.5,4.57-1.72,8.83.61.94,1.23,1.83,1.45,3.35-3.31.42-5.92,1.66-8.54,3.57-3.39,2.47-9.29-2.7-10.56,2.39-1.92,7.71-12.72,4.3-11.28,7.92.71,1.77,2.29,2.92,3.82,3.96,2.37,1.61.77,4.87-1.53,7.7-3.05,3.76-1.13,7.42-2.27,8.01-1.08.56-3.35-1.58-8.12.25-5.6,2.15-3.89,7.38-9.12,9.05-3.05.97-4.32,3.75-3.44,6.91l1.37,4.91c-3.33,4.48-6.71,8.76-10.93,12.45-3.14.71-5.89,1.92-8.58,3.54-5.61,1.59-3.18,7.11-6.58,8.12-5.48,1.63-3.13,7.32-5.81,11.09-2.35,3.3-7.41,2.16-13.06,6.39-2.95,2.21-6.24,2.6-9.81,1.65l-8.34-2.23c-1.15-.31-2.39.08-2.97.91-.54.76-.87,2.08-.42,3.1l2.91,6.57c.6,1.35.49,2.84-.44,3.67-2.79,2.49-4.91-2.36-12.28-3.89-4.35-.9-4.89-4.83-8.45-6.33-3.14-1.32-6.55-1.78-9.95-1.25-2.38.37-4.7,2.57-4.13,4.96.56,2.33,6.24,2.27,7.72,7.91.22.25.14.52,0,.57-.73.27-4.72-1.76-9.28-.43-.94.28-2.11,1.6-3.05.93l-3.04-2.19c-1.65-1.19-3.49-1.52-5.06-.44l-4.9,3.35c-1.49,1.02-3.21,1.5-4.48,2.89-3.08,3.35-5.53,7.06-7.27,11.31-.78,1.92-.54,4.24,1,5.78,6.99,7.01,15.18,12.77,25.1,14.72l28.58,5.64c23.73,3.45,47.53,2.55,70.77-3.27l22.55-7.37,6.64-26.18c2.78-10.95,2.12-22.93,3.96-27.71l4.55-11.89,10.03-22.9c6.51-12.47,14.45-23.66,23.72-34.3,10.38-11.91,22.5-21.88,35.81-30.35,8.87-5.65,18.06-9.53,27.97-12.79,7.73-2.54,15.25-3.53,23.48-3.42l21.58.28,18.23-.5,16.46.11c3.73.03,7.2,1.34,10.62,2.52,10.62,3.68,14.92-2.17,22.28-2.35l19.92-.49,25.54,1.03c11.13.45,21.52-1.14,32.04-4.98,19.13-6.98,36.39-18.23,50.77-32.61,6.8-6.8,12.02-14.19,15.46-23.16,4.65-12.12,10.16-23.49,16.87-34.6,3.42-5.66,8.97-15.83,7.91-21.28ZM570.43,380.77c-3.05,1.75-5.88,3.42-8.16,6.16-1.59,1.91-3.64,2.83-5.95,3.63-5.63,1.95-9.38,7.62-14.13,9.16-5.12,1.66-6.1-3.47-9.81-4.02l-15.08-2.2c-2.01-1.74-4.25-2.61-6.88-3.04l-6.79-8.73c4.01-3.26,6.52-7.44,7.8-12.26.51-1.94,1.22-3.37,2.7-4.74,1.42-1.31,2.28-3.21,3.35-4.84,4.37-6.67,1.22-11.25,5.33-16.75,2.49-3.33,4.28-6.85,5.66-10.75.28-.79,1.1-1.45,1.7-1.56,2.02-.39,4.44,4.54,8.2,2.32l7.86-4.64,7.17-3.24c2.85-1.29,6.62-.89,8.04,1.94,3.53,6.98-4.41,13.72-1.76,16.25,1.65,1.58,10.3-2.28,11.77,2.32l2.11,6.6c1.88,5.87-2.93,6.14-2.78,9.85.09,2.26,4.04,1.61,5.26,3.02,1.56,1.8.91,11.8-5.61,15.53Z"/>
        </g>
        <g>
          <path d="M167.15,617.88c-2.45,3.06.07,5.81-.9,9.45-1.19,4.48-6.68-5-4.01-10.04,1.5-2.83,2.31-5.28,2.38-8.55.06-3.03,1.38-6.03,4.32-7.51l.75,5.58c.54,4.03,0,7.91-2.54,11.08Z"/>
          <g>
            <path d="M527.21,232.88c-2.56-2.9-6.09-4.27-10.17-2.91-1.19-4.51-3.2-8.42-6.02-12.11l-8.6-11.28c-4.26-5.59-5.17-12.98-2.16-19.57,4.3,2.27,11.14,2.69,11.82.92.92-2.41-4.21-8.03-7.27-11.05l-9.14-9.02-8.81-8.99c-4.15-4.23-9.94-6.56-15.96-6.96l-57.53-3.76c-17.43-.67-34.36-.27-51.6,1.87-6.09.75-11.94,1.31-17.7,3.18l-12.76,4.15c-6.24,2.03-11.55,5.81-17.08,9.2l-6.49,3.98c-14.88-8.16-37.22-1.15-51.8,6.62-12.93,6.89-23.82,16.38-32.19,28.41-5.09,7.32-10.3,13.99-15.88,20.95l-20.99,26.2-21.15,26.96c-17.28,22.04-32.53,45.28-46.18,69.73l-13.03,25.59-17.48,40.46-6.72,20.18c-2.31,8.63-3.33,17.46-2.53,26.24.21,2.32,1.42,3.07,3.04,4.12,4.18,2.72-1.58,9.82-.57,16.61l1.62,10.87,3.65,22.74c.73,4.52,2.5,12.05,5.14,11.77,1.73-.18,2.09-3.45,2.51-6.35l1.5-10.52c1.56-10.95-2.7-19.28-.51-27.8,1.28-4.96,1.41-9.82,1.4-14.98-.02-7.55,1.86-14.97,5.38-21.56l5.33-8.53c1.19-1.9.27-3.81-.42-5.41l3.98-7.48c1.2-2.26,2.33-4.5,3.99-6.39,1.92-2.19,2.72-4.78,2.57-7.73-.27-5.41.7-10.48,1.65-15.7.8-4.43,2.1-8.23,4.44-12.08,3.12-5.11,5.8-10.31,10.03-14.88l-.55,9.32c-.05.8.05,1.58.72,2.16,3.65-3.51,5.7-8.12,7.14-13.05l1.58-10.93c.58-4.05,2.74-7.24,6.64-8.54,6.42-2.15,4.22-9.49,10.57-14.92.85-.73,1.96-1.24,2.89-.89,1.87.71,2.67,4.67,4.44,3.87,1.95-.88,2.76-4.76,4.01-4.75.6,0,5.19,9.68,8.44,7.46.32-.22.53-.84.59-1.44l.68-7.46c.14-1.49,1.1-2.74,2.23-3.29,1.04-.5,3.12-.86,3.85.24,1.03,1.54-3.32,5.36.61,7.65,3.58,2.08,8.35,1.14,14.77,7.3,1.68,1.61,3.92,2.98,4.64,5.31l2.94,9.58c.27.9,1.12,1.4,1.95,1.37,1.87-.08,2.08-3.55,2-6.99l-.56-25.93c-.05-2.42-.08-4.43,1.65-6.31,1.08-1.18,1.59-2.9,1.81-4.57l.9-6.95c.44-3.37-2.5-6.78-1.77-9.91.84-3.62,1.3-7.12,1.53-10.84l.67-10.82c.32-5.13,1.88-9.96,5.2-13.91,1.55-1.85,3.77,3.39,7.32,1.73,1.92-2.93,1.21-7.21-.63-9.94-2.32-3.45,3.67-6.07,5.08-8.92,1.27-2.56,2.26-5.02,4-7.3,3.58-4.69-1.97-7.81-.86-10.15,1-2.1,4.97-.62,7.72-4.24,2.55-3.35,7.17-2.83,12.09-5.19,2.39-1.15,3.06-3.46,3.85-5.78,1.57-4.62,5.22-7.95,9.04-10.77,1.2-.88,2.45-1.51,3.92-.46-3.81,5.54-2.61,14.04-.21,14.02.56,0,1.32-.79,1.52-1.46l2.44-8.38c1.06-3.63,3.7-7.31,7.58-8.35,4.22-1.13,7.49-2.71,11.42-5.58-1.62,3.61-2.03,6.59-3.15,9.93l-2.04,6.06c-.13,2.29-.53,4.32-1.47,6.39-1.91,4.2,2.13,8.47-2.07,10.96l-4.57,2.7c-1.86,1.1-1.87,3.06-2.77,4.69-1.38,2.49-2.8,4.74-3.82,7.41-1.99,5.19-4.73,9.55-8.21,13.88-1.72,2.13-2.88,6.45-1.1,8.66,1.95,2.42,2.92,4.29,3.91,7.16,1.06,3.09,2.56,5.77,2.78,9.24.13,2.06.69,3.89-.67,5.87-.84,1.22-1.18,3.1-1.04,4.67.57,6.45-2.46,10.24,2.68,15.25,6.94,6.77,1.39,11.97,5.9,15.78l7.73,6.53c2.04,1.72,3.34,3.84,3.96,6.47.99,4.14,2.28,8.04,4.1,11.89,1.96,4.14-.17,7.91,4.66,9.62,4.87,1.73,2.08,5.56,5.2,10.81.84,1.41.82,2.94-.27,4.26-5.33,6.42-9.8,8.41-12.24,11.56-2.23,2.88-7.29,1.17-7.22,6.13.03,2.03-.74,3.23-2.12,4.43l-9.7,8.48c-1.31,1.14-2.42,2.69-4.24,3.13-1.5.36-3.28.54-3.98,2.07l-4.5,9.75c-1.32,2.87-2.63,5.49-4.8,7.8-3.02,3.21-4.82,7.14-6.66,11.09-.74,1.6-1.75,2.85-1.6,4.81.16,2.23-.93,4.27-2.55,5.72-4.35,3.88-5.04,10.78-1.53,12.94,1.2.74,1.77,2.13.86,3.3l-3.41,4.36c-3.58,4.58-.77,7.32-2.7,11.18l-4.32,8.66c-2.82,5.64,1.09,10.78-3.93,13.33-2.6,1.32-3.06,3.13-3.07,6.11-.04,6.31-1.81,12.14-3.1,18-1.29,5.86,1.69,10.91-4.81,16.93-3.65,3.38-5.15,7.92-6.51,12.58-2.02,6.93-9.28,12.41-11.37,24.1-1.2,6.69-6.38,11.67-7.56,7.91-3.2-10.16,2.66-18.19-1.38-25.15-3.2,3.07-1.9,7.25-6.33,13.64-1.79,2.58-3.55,4.99-5.93,7.05-2.26,1.95-2.52,4.8-1.51,7.61,3.06,8.53,3.66,14.26-3.23,20.77-2.44-2.85-4.91-4.6-8.17-5.91-.32-1.76-.89-3.25-2.11-4.41-3.47-3.31-10.62,5.12-11.73,11.82l-.06,9.09c-2.77-.48-5.07.44-6.99,2.16-2.41,2.17-5.94,5.05-6.63,4.15-.15-.2-.09-.77-.08-1.18l.17-7.76c.98-4.28,8.86-8.31,8.35-14.23l-.66-7.69c-1.67-.01-2.87,1.18-3.69,2.6-3.29,5.65-6.16,11.59-7.91,17.95l-1.29,10.55c-.11.5.16.9.83.59.93.01,3.41.55,3.75,1.7.71,2.45,1.67,4.04,3.27,5.94l14.08,16.76c1.62-.1,2.91-1.28,4.1-2.53l6.74-7.09c1.94-2.04,3.11-4.4,3.76-7.11l1.97-8.31c6.06-2.06,11.27-5.76,14.18-11.38,1.31-2.53,3.07-4.3,4.84-6.49l6.37-7.89c1.77-2.2,3.2-4.58,3.96-7.3l3.22-11.5c1.12-4,2.41-7.6,4.32-11.28,1.96-3.78,4.03-7.44,5.31-11.52,1.15-3.7,2.8-6.89,5.79-9.44,3.86-3.3,7.04-7.01,10.21-10.98,3.01-3.78,5.36-7.6,6.75-12.3,1.87-6.29,4.18-12.27,7.75-17.81,1.72-2.67,4.08-4.92,6.59-6.77,2.39-1.77,3.62-3.59,4.55-6.4,1.43-4.31,4.05-8.21,6.5-12.03l3.07-6.52c2.64-5.61,7.19-14.21,5.42-18.77l-7.74,2.56c-2.1-6.27,3.74-7.87,5.75-13.31,1.21-3.26,3.03-7.08,6-9.13,1.76-.92,3.22,2.02,4.12,2.96.95,1,3.31.53,3.95-.25,1.61-1.96.22-4.18-.72-5.63,2.22-3.98,7.13-5.25,11.32-6.21,4.2-.96,7.73-4.51,10-7.93,1.6-2.41,2.6-4.74,4.69-6.69,3.72-3.48,6.81-7.34,9.37-11.81,2.92-5.08,7.19-8.85,12.98-10.4l-1.74,8.24c-.62,2.95-.72,5.67-.9,8.71l-1.48,25.47c-.22,3.83.79,6.72,2.38,10.04,3.82,7.99,8.52,14.92,14.35,21.59,7.72,8.82,16.84,15.65,27.93,19.71,6.22,2.28,12.34,4.15,18.9,5.25,6.66,1.11,12,.48,9.29-1.06-7.2-4.1-15.13-2.66-22.89-13.45-3.02-4.2-12.39-6.56-15.75-12.77l-4.7-8.71c-.49-.91-1.45-1.64-2.27-1.74-1.35-.15-2.62,1.37-3.35,1.09-.56-.22-.66-4.5-3.07-9.29-1.2-2.38-1.03-5.04.66-7.13,2.09-2.6.53-4.96,2.38-9.26.73-1.7.61-3.73-.73-4.94l-5.01-4.54c-1.08-.98-1.79-2.47-1.16-3.94,1.54-3.6,1.71-7.22,2.02-11.07.28-3.52.43-6.52-.54-10.05-.62-2.26.9-5.35,2.72-6.59l4.28-1.48c4.09-3.12,5.02-8.41,8.41-8.91,7.37-1.08,8.75-9.77,14.06-11.01l5.65-1.32c2.67-1.13,5.28-2.06,8.23-2.08,6.65-.05,10.01-4.98,13.79-5.36,2.39-.24,4.5-.9,6.56-2.09l7.68-4.46,16.39-9.55c1.51-.88,2.37-2.33,3-3.95l2.3-5.89c2.7-6.92,10.64-3.32,13.26-8.85,3.11-6.59,7.42-9.74,8.67-15.14.5-2.17,1.88-3.74,3.66-5.03l8.53-6.15c4.88-3.52,2.91-10.23,4.8-15.18.86-2.24,2.63-4.03,3.97-5.9,1.08-1.51,2.63-1.66,4.13-2.56.96-.57.4-3.11-.2-4.06-1.17-1.86-.53-4.01-.29-6.07.38-3.28.53-6.1,2.78-8.7,1.27-1.47,1.78-3.72,1.58-5.63-.44-4.16,3.13-4.87,3.93-8.71.76-3.62,4.98-.38,6.74-4.13,3.1-1.88,7.11-1.56,9.82.94,2.91,7.45,13.88,10.94,15.48,6.69,1.11-2.94-.08-5.85-2.01-8.04ZM202.07,280.44c-1.61,4.09-2.5,8.09-1.95,12.55.56,4.48-2.72,6.68-1.16,11.81.4,1.31.84,2.3.45,4.31-5.82-2.96-12.14-3.09-18.52-2.59-5.03.4-9.64,1.13-13.97,3.73l-12.15,7.29c-1.52.91-2.86,1.86-4.62,2.3,3.87-6.73,7.99-12.76,12.77-18.86,11.55-14.73,23.71-28.54,36.57-42.11l10.1-10.61c-3.45,10.59-3.84,22.85-7.52,32.17ZM285.24,183.49c-1.38,1.08-2.94,1.77-4.72,2.08-5.71-4.61-8.36,2.53-16.14,3.94-6.43,1.16-7.76,7.51-11.1,10.11-4.66,3.64-10.29,5.89-16.26,6.22,4.46-5.55,9.49-9.8,15.25-13.31l13.46-8.19c8.41-5.11,18.91-8.78,29.27-8.51l-9.76,7.66ZM334.36,220.13c.67-3.1,2.82-5.35,4.07-8.06,2.29-4.96,5.19-8.89,9.54-12.2,4.43-3.37,9.69-5.41,15.36-4.45-.14.96-.67,1.66-1.26,2.15l-9.43,7.87-5.33,2.9c-4.45,2.42-3.16,14.1-11.44,15.45-1.66.27-1.73-2.63-1.51-3.66ZM355.23,350.02c-1.45,2.89-2.66,5.78-4.94,8.06l-5.07,5.09c-1.14,1.14-2.49,1.57-3.9,1.43-1.14-.11-2.22-.93-3.03-2.14l-3.1-4.68c-.88-1.33-1.02-2.95-1.12-4.51-.38-6.35-6.49-4.64-7.37-5.82-.19-.26-.24-.81-.2-1.34.88-3.07-.21-5.78-2.44-8.05-2.05-5.67-2.19-11.86-.71-17.74.85-3.39-2.83-7.94-5.74-10.34-3.34-2.76-5.93.81-7.02.66-1.14-.15-.47-4.03-4.79-5.26-3.65-1.04-5.47-3.79-6.3-7.22-1.33-5.53-2.14-10.82-1.47-16.51.58-4.99.38-10.05-.74-14.93-.52-2.27-1.09-4.32-.41-6.64,1.72-5.88,7.26-19.8,11.07-19.69.87.02,1.77.76,2.31,1.63l2.31,3.74c2.48,4.02,6.21-1.6,13.8-1.29,6.51.26,10.19-4.52,11.41-1.41,1.04,2.66,2.81,4.59,4.38,6.91,1.83,2.69-1.89,9.96-1.99,16.66-.11,7.59.85,14.9,1.94,22.38l.52,11.78c.23,5.12,1.38,9.5,3.43,14.08l4.67,10.47,2.53,7.06c2.3,3.84,4.38,7.94,4.31,12.6-.03,1.88-1.54,3.46-2.33,5.03ZM482.24,237.11c-.95,5.63-2.96,10.52-4.41,15.94-2.2,8.23-4.8,15.78-9.62,22.97-5.7,8.51-12.55,15.81-20.71,22.1-6.13,4.73-10.62,10.46-13.44,17.75-1.77,4.57-3.84,8.72-6.89,12.6-2.21,2.81-3.87,6.15-6.91,8.27-3.56,2.48-8.22,4.35-12.62,4.46l-13.14.32.03-5.02c0-1.16-1.22-3.12-2.69-2.48-2.06.9-3.42,4.18-2.42,6.3.23.49,1.24,1.92.08,1.97-1.69.08-3.6-1.26-4.95-2.31-7-5.38-15.81-13.98-19.28-21.87l-6.14-13.95c-4.28-9.74-5.67-19.41-5.91-29.77-.2-8.75,1.04-16.82,5.43-24.44,3.67-6.37,6.02-14.38,2.69-20.97l-2.88-5.69c1.99.89,4.26,1.53,5.74,3.26,2.45,2.85.09,8,4.39,8.62,3.51.51,6.91,1.38,10.14,2.78,2.79,1.21.77,4.64,4.16,9.72,1.1,1.65,1.57,3.45,1.52,5.48l-.13,4.78c-.09,3.31,1.72,6.06,4.7,7.48,5.82,2.78.31,8.52,6.1,12.95,3.75,2.87,4.88,5.98,6.84,5.95.87-.01,2.3-.23,2.85-1.26,1.66-3.12,3.57-6.28,4.36-9.84l4-18.03c.52-2.35-3.49-6.29-2.5-9.14,1.51-4.37,2.62-8.6,3.15-13.28.73-6.53,1.61-12.86,1.43-19.45-1.22-3.54-1.41-7.1-.32-10.63.51-4.47,2.52-8.13,5.29-11.54,2.04-2.52,3.3-5.57,2.46-8.8l-3.28-.55-8.31-4.23c-3.57-1.82-7.29-1.92-11.23-.32-1.87-3.51,1.37-6.45-.28-9.88-.96-1.98-.33-4.13,1.38-5.48,3.28-2.57,7.3-1.59,12.73-4.08,4.24-1.95,9.97,3.73,17.45,3.65,5.97-.06,3.97,5.46,10.46,5.9,1.77.12,1.84,2.36,2.59,3.43l7.69,10.96c2.94,4.19,4.14,9.49,4.19,14.62l.07,6.62c.57,3.4,3.82,6.15,7.29,4.89,4.23-1.53,6.61-5.67,6.82-10.04.07-1.51.39-3.56,1.75-4.27,1.96-1.03,4.53,2.2,6,1.56,2.21-.95,2.34-9.38,1-14.52-.64-2.47-.39-4.95,1.39-6.84,2.3,3.5,3.48,7.19,4.25,11.15,3.08,15.81.33,35.95-2.39,52.15Z"/>
            <path d="M428.4,307.95c1.07-1.56,1.02-2.9.11-4.11-2.04-2.7,2.31-4.95-.5-8.16-2.47-2.82.32-6.53,2.99-9.73,3.03-3.63,1.19-8.52,5.03-11.41.71-.53,1.69-.75,2.53-.5,2.65.77,3.34,6.8.6,9.65-.93.97-2.35,1.53-3,2.62-1.87,3.15-1.12,6.3-.12,9.62.93,3.08,1,6.84.19,10.03-.76,3.02-4.27,5.32-7.18,5.39-1.3.03-1.22-2.57-.65-3.4Z"/>
          </g>
        </g>
      </g>
    </g>
  </g>
  <g id="Capa_3">
    <circle class="st1" cx="431.01" cy="431.01" r="424.01"/>
  </g>
  <g id="Capa_6">
    <g>
      <path class="st0" d="M185.85,748.18c-4.69-3.63-7.27-7.95-7.75-12.95-.48-5,1.32-10.14,5.42-15.42,2.5-3.23,5.13-5.72,7.88-7.48,2.76-1.76,5.49-2.75,8.21-2.98,5.38-.44,10.65,1.34,15.8,5.33,3.33,2.58,6.24,5.72,8.71,9.4.88,1.49.55,3.24-.99,5.23-2.11,2.72-3.86,3.54-5.27,2.45-.23-.18-.91-.9-2.01-2.16-1.11-1.26-1.92-2.09-2.44-2.5-1.85-1.43-3.88-1.75-6.1-.96-2.22.79-4.16,2.27-5.84,4.43-1.68,2.17-2.69,4.44-3.02,6.81-.34,2.37.28,4.21,1.84,5.53,1.04.91,2.96,2.44,5.75,4.6,1.35,1.05,1.5,2.4.43,4.05-.36.63-.77,1.24-1.22,1.82-.45.58-.95,1.15-1.5,1.69-1.04,1.02-2.41,1.28-4.12.8-1.71-.49-3.92-1.5-6.65-3.03-2.73-1.53-5.11-3.08-7.14-4.66Z"/>
      <path class="st0" d="M235.41,730.56l11.21,7.04c1.17.74,1.72,1.58,1.65,2.53-.07.95-.74,2.57-2.01,4.87-1.27,2.3-3.91,6.64-7.92,13.02-4.01,6.38-7.07,11-9.16,13.84-.57.73-1.3,1.24-2.17,1.54-.87.3-1.73.23-2.58-.21-1.67-.86-3.56-1.95-5.65-3.27-2.09-1.31-4.03-2.63-5.81-3.94-.77-.58-1.2-1.32-1.31-2.24-.11-.92.04-1.79.45-2.62,1.65-3.12,4.48-7.87,8.49-14.26,4.01-6.38,6.78-10.65,8.3-12.79,1.52-2.14,2.69-3.45,3.51-3.92s1.82-.34,2.99.39Z"/>
      <path class="st0" d="M239.11,777.29l14.51-29.17c1.72-2.85,3.54-3.89,5.47-3.1,1.34.63,10.18,5.02,26.5,13.17,1.77.88,1.86,2.92.27,6.1-.8,1.61-1.99,2.03-3.55,1.25l-9.63-4.81c-.62-.31-1.24-.3-1.86.01-.62.32-1.13.89-1.54,1.71l-1.9,3.81c-.55,1.11-.45,1.86.32,2.24l7.34,3.66c.71.35,1.14.81,1.3,1.38.16.57-.12,1.56-.82,2.98-.71,1.41-1.33,2.23-1.86,2.46-.54.22-1.19.15-1.95-.24l-6.59-3.29c-.74-.37-1.35-.41-1.85-.12-.5.29-.97.9-1.44,1.83l-4.61,9.23c-.63,1.25-1.31,2.07-2.06,2.46-.75.39-1.47.41-2.18.05l-12.55-6.27c-.83-.41-1.37-1.1-1.63-2.05-.26-.96-.15-2.05.32-3.29Z"/>
      <path class="st0" d="M280.53,795.22c.71-1.8,1.86-3.12,3.45-3.96,1.59-.83,3.3-.89,5.14-.16,1.84.73,2.96,1.88,3.36,3.46.4,1.58.28,3.18-.35,4.79s-1.76,2.88-3.35,3.77c-1.59.9-3.19,1.03-4.8.39s-2.76-1.73-3.46-3.27c-.7-1.54-.69-3.22.02-5.02ZM290.48,770.05c.71-1.8,1.86-3.12,3.45-3.96,1.59-.83,3.3-.89,5.14-.16,1.84.73,2.96,1.88,3.36,3.46.4,1.58.28,3.18-.35,4.79s-1.76,2.88-3.35,3.77c-1.59.9-3.19,1.03-4.8.39-1.61-.64-2.76-1.73-3.46-3.27-.7-1.54-.69-3.22.02-5.02Z"/>
      <path class="st0" d="M358.5,791.35c-2.89-.66-5.13-.21-6.71,1.34-1.58,1.55-2.82,4.29-3.72,8.23-1.41,6.2-.62,9.64,2.37,10.32.61.14,1.02.21,1.22.21-.39-.09-.51-.98-.38-2.67.13-1.69.4-3.44.81-5.23s1.07-2.86,2-3.21c.92-.34,2.1-.35,3.53-.03,1.43.32,2.42.56,2.98.71.56.15,1.18.37,1.87.67.69.3,1.2.63,1.52.99.76.83.99,1.87.71,3.11l-1.94,8.54c-.69,3.04-1.69,5.37-3,6.98-1.31,1.61-3.24,2.29-5.78,2.04-3.57-.36-8.91-1.35-16.04-2.97-2.86-.65-5.18-1.75-6.98-3.31-1.79-1.56-3.03-3.44-3.71-5.64-1.23-4.09-1.21-8.94.06-14.54,1.27-5.6,3.88-10.25,7.83-13.94,3.95-3.7,8.41-5.14,13.4-4.34,3.43.53,5.89.97,7.4,1.31,5.49,1.25,9.3,2.54,11.43,3.89,1.45.9,1.89,2.62,1.31,5.16-.77,3.39-1.98,4.91-3.61,4.53-.51-.16-1.51-.51-3-1.05-1.5-.54-2.68-.92-3.55-1.11Z"/>
      <path class="st0" d="M389.08,786.01l17.33,1.95c1.21.13,2.03.39,2.45.8.66.63.84,2.36.55,5.19-.15,1.43-.48,2.63-1,3.61-.52.97-1.82,3.4-3.9,7.28-2.08,3.88-3.53,6.57-4.35,8.05-2.56,4.76-5.23,9.37-8.01,13.82-.56.87-1.05,1.44-1.5,1.71-.44.27-1.12.36-2.04.27-6.91-.73-11.55-1.34-13.92-1.83-1.59-.33-2.31-1.17-2.17-2.52.08-.75.44-1.68,1.09-2.78,3.5-5.87,6.53-10.81,9.09-14.82,2.56-4.01,4.14-6.51,4.74-7.5.6-.98.92-1.63.95-1.95.09-.83-.25-1.29-1-1.37l-9.51-.76c-.69-.07-1.16-.49-1.41-1.26-.25-.77-.32-1.68-.21-2.74.11-1.05.28-2.14.49-3.27.22-1.12.56-1.86,1.03-2.21.47-.35,1.66-.47,3.59-.35s4.49.35,7.7.69Z"/>
      <path class="st0" d="M419.25,819.85l6.23.2c1.84-.03,3.27-.55,4.27-1.57.62-.61.92-1.42.9-2.42-.04-2.56-1.33-3.82-3.87-3.78-.92.02-1.97.17-3.15.47-1.18.3-1.89.45-2.12.45-1.42.02-2.15-1.42-2.2-4.34-.02-1.24.15-2.04.5-2.41.36-.37.81-.59,1.37-.68.56-.09,1.3-.15,2.22-.19.92-.03,1.73-.08,2.42-.13,1.94-.23,3.28-.71,4.03-1.45.75-.73,1.11-1.66,1.09-2.78-.02-1.12-.37-1.97-1.05-2.56-.69-.59-1.55-.87-2.61-.86-2.07.03-4.16,1.19-6.27,3.46-.32.33-.71.49-1.15.5-.44,0-.87-.33-1.28-1-.61-.91-.93-2.23-.95-3.95s.17-2.92.61-3.61,1.29-1.43,2.56-2.23c1.27-.8,3.19-1.59,5.74-2.37,2.56-.78,4.98-1.19,7.27-1.23,2.29-.04,4.19.1,5.71.42,1.52.32,3.03.86,4.52,1.64,1.5.78,2.71,1.92,3.64,3.42.93,1.51,1.41,3.29,1.45,5.35.03,2.06-.38,3.9-1.24,5.51s-2.12,2.71-3.75,3.3c2.22.92,3.91,2.34,5.06,4.24,1.15,1.9,1.75,4.03,1.79,6.39.07,4.56-1.35,8.05-4.25,10.48-2.91,2.43-6.57,3.68-10.98,3.75-7.97.13-13.51-.4-16.63-1.59-1.49-.58-2.35-1.58-2.57-3.02-.07-.48-.12-1.22-.13-2.22s0-1.74.06-2.22c.13-1.96,1.06-2.96,2.77-2.99Z"/>
      <path class="st0" d="M497.99,816.65l-1.12.2c.14,1.35.26,2.99.37,4.91.02.93-.22,1.78-.7,2.57-.48.79-1.19,1.28-2.13,1.48-1.84.39-3.99.75-6.44,1.05-2.45.31-4.78.52-6.99.64-.96.04-1.77-.26-2.43-.9s-1.12-1.55-1.39-2.73c-.27-1.18-.54-2.65-.83-4.43l-10.73,1.35c-1.68.13-2.93.02-3.75-.34-.83-.36-1.32-1.19-1.49-2.5l-.4-2.79c-.2-1.59-.04-2.94.48-4.05,3.17-6.97,7.56-15.02,13.18-24.16.49-.58,1.24-.94,2.25-1.07l13.13-1.66c1.37-.17,2.33.13,2.88.91.55.78,1.03,2.32,1.46,4.62s1.13,7.39,2.12,15.24l.3,2.38,1.03-.13c.69-.09,1.25.13,1.7.66.45.53.71,1.13.8,1.8l.44,3.45c.26,2.06-.32,3.23-1.75,3.49ZM469.07,809.66c.09.71.45,1.03,1.07.95l4.9-.62-1.26-10c-.54.96-1.08,1.93-1.6,2.92-.52.99-1.06,2.01-1.61,3.05s-.95,1.81-1.2,2.33c-.25.52-.35.97-.3,1.37Z"/>
      <path class="st0" d="M522.32,776.95c1.35-.32,2.33-.12,2.96.59.63.71,1.21,2.01,1.76,3.9,1.32,4.42,2.74,9.8,4.25,16.17s2.6,11.66,3.27,15.9c.12.92-.02,1.79-.42,2.63-.39.83-1.05,1.4-1.96,1.7-1.79.59-3.89,1.17-6.29,1.74-2.4.57-4.7,1.03-6.88,1.39-.98.15-1.84-.06-2.59-.65-.75-.58-1.24-1.3-1.47-2.15-1.52-5.27-2.86-10.33-4.01-15.17-1.15-4.84-1.9-8.07-2.25-9.67l-2.2.34c-1.44.22-2.4-.71-2.9-2.79-.49-2.08-.68-3.5-.55-4.25.13-.75.73-1.4,1.82-1.94,6-3.11,11.82-5.69,17.46-7.73Z"/>
      <path class="st0" d="M541.49,802.5c-1.67-4.8-.93-8.91,2.24-12.34-3.44-1.17-5.62-3.05-6.52-5.64-.9-2.59-.89-5.04.05-7.36,1.71-4.41,5.48-7.63,11.33-9.67,5.54-1.93,10.22-1.91,14.04.06,1.96,1.01,3.29,2.54,4,4.58,1.15,3.29.75,6.35-1.19,9.18,4.92,1.12,8.24,4.12,9.94,8.99.96,2.76.91,5.5-.14,8.22-1.06,2.72-2.76,5.05-5.1,6.99-2.34,1.94-4.97,3.42-7.9,4.44-2.92,1.02-5.73,1.49-8.4,1.41-2.68-.08-5.16-.86-7.43-2.33-2.27-1.47-3.91-3.64-4.91-6.51ZM549.02,778.02c.53,1.51,2.12,2.38,4.78,2.59.54-1.25.58-2.55.1-3.91-.28-.79-.71-1.38-1.3-1.77-.59-.39-1.25-.45-1.98-.2-.73.25-1.24.71-1.52,1.35-.28.65-.31,1.29-.08,1.94ZM561.23,795.94c-.57-1.62-2.47-2.78-5.71-3.47-.61,1.44-.68,2.85-.2,4.23.48,1.38,1.15,2.24,2,2.58s1.66.38,2.42.11c.76-.27,1.26-.74,1.5-1.41.24-.67.23-1.35,0-2.03Z"/>
      <path class="st0" d="M583.27,787.42c-2.21-4.57-1.95-8.74.8-12.52-3.56-.77-5.93-2.38-7.12-4.85-1.19-2.47-1.46-4.9-.8-7.31,1.19-4.57,4.57-8.21,10.14-10.91,5.28-2.55,9.93-3.07,13.96-1.56,2.06.78,3.56,2.14,4.5,4.08,1.52,3.13,1.47,6.22-.13,9.26,5.02.55,8.66,3.14,10.91,7.79,1.27,2.63,1.54,5.35.8,8.18-.74,2.82-2.16,5.33-4.26,7.53-2.1,2.2-4.55,3.97-7.33,5.32-2.79,1.35-5.52,2.14-8.19,2.36-2.67.23-5.22-.26-7.65-1.46-2.43-1.2-4.31-3.17-5.63-5.91ZM587.93,762.23c.7,1.44,2.38,2.12,5.04,2.02.39-1.3.28-2.6-.35-3.9-.37-.76-.86-1.29-1.49-1.61-.63-.32-1.29-.31-1.99.03-.7.34-1.15.84-1.35,1.52-.2.68-.16,1.32.14,1.93ZM602.12,778.63c-.75-1.55-2.77-2.48-6.07-2.79-.44,1.5-.35,2.91.29,4.23.64,1.32,1.4,2.09,2.28,2.33.88.24,1.69.18,2.42-.17.73-.35,1.17-.88,1.32-1.57.16-.7.08-1.37-.24-2.02Z"/>
      <path class="st0" d="M618.51,735.38l14.8-9.23c1.03-.65,1.83-.95,2.42-.89.91.09,2.13,1.33,3.65,3.73.77,1.22,1.25,2.37,1.45,3.45.2,1.08.69,3.79,1.46,8.13.78,4.34,1.3,7.34,1.58,9.01.95,5.32,1.71,10.59,2.29,15.81.1,1.02.07,1.78-.11,2.27-.18.49-.66.98-1.43,1.48-5.87,3.72-9.89,6.12-12.05,7.2-1.45.73-2.54.52-3.26-.63-.41-.64-.7-1.59-.87-2.86-.9-6.77-1.59-12.52-2.07-17.26s-.79-7.67-.93-8.82c-.14-1.14-.29-1.85-.46-2.12-.45-.71-.99-.86-1.63-.46l-7.93,5.3c-.58.37-1.21.33-1.89-.12-.67-.45-1.29-1.12-1.86-2.02-.57-.9-1.11-1.85-1.64-2.87-.53-1.02-.72-1.81-.57-2.38.15-.57,1.01-1.4,2.6-2.5,1.58-1.1,3.74-2.51,6.47-4.24Z"/>
      <path class="st0" d="M663.02,743.13l5.04-3.66c1.44-1.16,2.24-2.44,2.41-3.86.11-.86-.15-1.68-.77-2.46-1.6-2-3.39-2.2-5.37-.61-.72.58-1.45,1.35-2.2,2.31-.75.96-1.21,1.51-1.39,1.66-1.1.89-2.57.19-4.4-2.08-.78-.97-1.14-1.7-1.08-2.21.06-.51.28-.97.67-1.38.39-.41.93-.92,1.64-1.51.71-.59,1.32-1.12,1.83-1.59,1.39-1.37,2.15-2.58,2.29-3.61s-.14-1.99-.84-2.86c-.7-.87-1.5-1.33-2.41-1.38-.9-.04-1.76.26-2.59.92-1.62,1.3-2.56,3.49-2.83,6.58-.06.46-.26.82-.6,1.1s-.89.28-1.62,0c-1.04-.35-2.1-1.19-3.17-2.53s-1.66-2.42-1.73-3.22c-.08-.81.14-1.92.65-3.33.51-1.41,1.54-3.21,3.08-5.4,1.54-2.19,3.2-4,4.99-5.43,1.79-1.43,3.37-2.49,4.77-3.18,1.39-.68,2.92-1.18,4.58-1.48,1.66-.3,3.31-.15,4.97.47,1.66.62,3.13,1.73,4.42,3.33,1.29,1.61,2.09,3.31,2.4,5.12.31,1.8,0,3.44-.94,4.91,2.32-.63,4.52-.55,6.6.24,2.07.8,3.85,2.11,5.33,3.95,2.86,3.55,3.88,7.18,3.07,10.88-.81,3.7-2.93,6.93-6.37,9.7-6.21,4.99-10.92,7.97-14.11,8.95-1.53.46-2.82.19-3.88-.81-.35-.33-.84-.89-1.47-1.67s-1.06-1.38-1.31-1.79c-1.1-1.63-.98-2.98.35-4.06Z"/>
    </g>
    <g>
      <path class="st0" d="M172.51,130.57l35.57,11.1c1.43.43,2.44.97,3.02,1.61s.76,1.36.53,2.14c-.23.78-.69,1.48-1.38,2.11l-13.86,12.51c-1.41,1.27-2.54,1.83-3.41,1.67-.27-.07-.7-.23-1.29-.48l-3.66-1.54c-1.12-.5-2.43-.18-3.91.95l-8.14,7.34c-.6.54-1.01,1.02-1.22,1.42-.21.4-.24.89-.08,1.47l1.47,5c.18.78.18,1.41,0,1.91-.18.5-.59,1.04-1.25,1.64l-3.88,3.5c-1.12,1.01-2.08,1.15-2.9.43-.13-.09-.25-.19-.35-.31-.6-.66-.95-1.49-1.06-2.48l-7.97-35.93c-.73-3.4.36-6.42,3.25-9.03l3.44-3.11c2.3-2.07,4.66-2.72,7.08-1.94ZM168.51,154.18l1.56,5.71c.12.36.27.64.45.84.67.75,1.37.8,2.09.15l3.92-3.54c.6-.54.88-1.07.84-1.58-.04-.51-.17-.88-.37-1.11-.21-.23-.46-.42-.75-.57l-4.98-2.23c-1.02-.44-1.8-.41-2.35.09-.55.49-.68,1.24-.4,2.24Z"/>
      <path class="st0" d="M232.98,83.79c.65-.42,1.18-.31,1.61.34.28.42.39.99.35,1.71l.38,24.34c1.71,2.62,4.13,6.5,7.24,11.62.43.73.55,1.59.36,2.57-.19.98-.75,1.82-1.68,2.52-1.76,1.33-3.94,2.85-6.53,4.54-2.59,1.69-5.01,3.18-7.26,4.47-1.01.57-2.01.75-2.98.53-.97-.22-1.71-.67-2.21-1.36-2.2-3.23-4.45-6.6-6.76-10.13l-20.56-10.05c-.97-.43-1.62-.88-1.93-1.37-1.06-1.62-.79-2.95.79-3.98l16.54-10.95c.94-.61,1.74-.93,2.4-.94.66-.02,1.61.22,2.85.7l7.12,4.43c.98.37,1.64.45,1.98.23.34-.22.56-.78.67-1.68l-.12-11c.11-1.04.58-1.83,1.42-2.38l6.31-4.12Z"/>
      <path class="st0" d="M265.04,74.83l2.13,4.83,4.74,10.14c.69,1.47,1.68,2.4,2.96,2.78,1.29.38,2.54.28,3.77-.29,1.23-.57,2.1-1.47,2.61-2.69.52-1.22.43-2.57-.26-4.04l-7.32-15.66c-.77-1.65-1.12-2.96-1.04-3.93.08-.97.85-1.81,2.32-2.5l4.83-2.26c1.12-.52,2.05-.55,2.78-.08,1.36.81,3.92,5.23,7.67,13.25,1.23,2.63,2.14,4.66,2.72,6.09,1.22,2.89,1.75,5.72,1.58,8.51-.17,2.79-.89,5.29-2.16,7.51-2.56,4.48-6.25,7.85-11.08,10.11-6.38,2.98-12.34,3.96-17.9,2.93-2.81-.52-5.4-1.75-7.78-3.69-2.38-1.94-4.37-4.56-5.96-7.88-.81-1.63-1.96-4.05-3.46-7.25-1.5-3.2-2.54-5.54-3.11-7-.58-1.46-.8-2.68-.68-3.65.12-.97.9-1.8,2.33-2.47l14.03-6.56c1.4-.65,2.5-.72,3.3-.2,1.04.67,2.02,2,2.96,4Z"/>
      <path class="st0" d="M328.87,87.27c-2.41.99-5.92,2.19-10.54,3.62-4.62,1.43-7.79,2.34-9.51,2.73-1.72.39-3.08.48-4.08.26-1-.22-1.69-.83-2.09-1.84-1.46-3.92-2.97-8.44-4.56-13.56-1.58-5.12-3.19-10.56-4.81-16.33-1.02-3.57.04-5.96,3.18-7.18,2.21-.84,5.64-1.99,10.29-3.43,4.65-1.44,8.32-2.5,11-3.19,2.68-.69,5.42-.87,8.21-.54,2.79.33,5.2,1.14,7.21,2.41,4.17,2.64,6.99,6.32,8.45,11.05,1.54,4.99,1.31,9.94-.69,14.84-.97,2.36-2.49,4.54-4.57,6.51-2.08,1.98-4.59,3.52-7.52,4.63ZM318.12,61.33l4.15,13.41c.09.3.29.54.59.73.3.19.64.23,1.01.11,2.36-.73,3.93-2.11,4.7-4.13.77-2.02.82-4.14.13-6.35-.69-2.22-1.86-3.97-3.54-5.25-1.67-1.28-3.49-1.62-5.44-1.02-.48.15-.84.28-1.09.4-.65.4-.81,1.1-.5,2.1Z"/>
      <path class="st0" d="M381.6,37.73l23.47,28.95c.95,1.15,1.49,2.15,1.62,3.01.13.86-.12,1.55-.75,2.08-.63.52-1.4.85-2.32.99l-18.47,2.74c-1.87.28-3.13.11-3.77-.5-.19-.21-.46-.58-.81-1.11l-2.19-3.31c-.66-1.03-1.92-1.49-3.78-1.37l-10.84,1.61c-.8.12-1.4.29-1.8.5-.4.22-.69.61-.88,1.19l-1.55,4.98c-.28.75-.63,1.28-1.05,1.59-.42.32-1.07.54-1.95.67l-5.16.77c-1.49.22-2.37-.19-2.65-1.25-.06-.15-.1-.3-.13-.45-.13-.88.03-1.76.49-2.65l13.26-34.33c1.28-3.24,3.85-5.14,7.71-5.72l4.59-.68c3.06-.45,5.38.32,6.97,2.31ZM365.19,55.17l-1.86,5.61c-.1.37-.13.69-.09.95.15,1,.7,1.42,1.66,1.28l5.22-.77c.8-.12,1.33-.4,1.57-.85.25-.45.35-.82.3-1.13-.05-.31-.15-.6-.31-.89l-2.91-4.61c-.61-.93-1.27-1.34-2-1.23-.73.11-1.25.65-1.57,1.64Z"/>
      <path class="st0" d="M471.48,36.72l16.42,33.45c.67,1.33.97,2.43.91,3.3s-.46,1.49-1.19,1.86c-.73.37-1.55.52-2.48.45l-18.62-1.45c-1.89-.15-3.08-.59-3.56-1.32-.14-.24-.32-.66-.54-1.26l-1.4-3.72c-.41-1.16-1.54-1.88-3.38-2.18l-10.93-.85c-.81-.06-1.43-.03-1.87.09-.44.12-.81.44-1.12.96l-2.62,4.51c-.44.66-.9,1.1-1.38,1.32-.48.21-1.17.29-2.05.22l-5.2-.41c-1.5-.12-2.27-.72-2.3-1.81-.03-.16-.03-.31-.02-.47.07-.89.42-1.71,1.07-2.48l20.59-30.51c1.97-2.87,4.9-4.16,8.79-3.85l4.63.36c3.08.24,5.18,1.51,6.28,3.81ZM451.59,50.06l-3.07,5.05c-.18.33-.28.64-.3.91-.08,1,.36,1.54,1.33,1.62l5.26.41c.81.06,1.38-.1,1.72-.48.34-.38.52-.72.55-1.03.02-.31,0-.62-.1-.94l-1.81-5.14c-.38-1.04-.94-1.59-1.67-1.64-.73-.06-1.37.36-1.9,1.25Z"/>
      <path class="st0" d="M538.63,46.46l6.04,1.44c1.28.31,2.12.73,2.53,1.26.41.54.48,1.45.21,2.73-1.14,5.77-2.5,11.95-4.08,18.53-1.58,6.58-2.86,11.36-3.85,14.35-.28.85-.8,1.56-1.55,2.13-.75.58-1.6.75-2.54.52l-9.42-2.26c-1.32-.31-2.65-1.13-4.01-2.45-7.49-7.24-12.23-11.69-14.22-13.36-.41-.3-.79-.32-1.15-.07-.36.25-.64.81-.85,1.68l-1.5,6.26c-.17.71-.57,1.22-1.2,1.5-.94.45-3.05.28-6.32-.5-.9-.22-1.78-.46-2.63-.72s-1.46-.82-1.84-1.66c-.38-.84-.48-1.69-.32-2.52.97-4.54,2.27-10.22,3.9-17.05s2.72-11.27,3.25-13.33c.53-2.06,1.13-3.46,1.78-4.2.65-.74,1.62-.95,2.9-.65l6.21,1.49c1.28.31,2.51.98,3.69,2.02,10.21,8.85,16.17,13.99,17.89,15.44.57.45,1.07.61,1.5.48.43-.14.72-.5.86-1.11l1.89-7.9c.18-.75.53-1.33,1.04-1.72.51-.39,1.11-.51,1.78-.35Z"/>
      <path class="st0" d="M561.05,53.65l14.59,5.35c1.52.56,2.39,1.31,2.6,2.25.21.94-.04,2.63-.75,5.07-.71,2.44-2.32,7.08-4.83,13.92-2.51,6.84-4.49,11.81-5.96,14.9-.42.8-1.06,1.4-1.93,1.82-.88.42-1.85.47-2.93.16-2.12-.61-4.54-1.42-7.27-2.42-2.72-1-5.27-2.02-7.65-3.05-1.03-.46-1.74-1.13-2.13-2.02-.4-.89-.5-1.77-.3-2.64.88-3.3,2.58-8.37,5.08-15.22,2.51-6.84,4.28-11.42,5.32-13.74,1.04-2.32,1.94-3.77,2.71-4.35.77-.58,1.92-.59,3.44-.04Z"/>
      <path class="st0" d="M605.74,75.51c.45,2.24.85,5.03,1.2,8.37.35,3.34.64,5.6.87,6.76.22,1.16.53,1.85.93,2.05s.86.17,1.4-.12c.54-.28,2.56-1.41,6.07-3.38,3.51-1.97,6.3-3.4,8.38-4.3,2.08-.9,3.51-1.17,4.28-.81.77.36,1.76.85,2.96,1.47,1.2.62,2.59,1.39,4.17,2.3,1.58.91,2.43,1.88,2.56,2.93.13,1.05-.12,2.3-.75,3.76-1.67,3.71-4.05,8.54-7.14,14.49-3.09,5.95-5.69,10.56-7.78,13.83-.5.79-1.19,1.36-2.08,1.73-.89.37-1.81.3-2.77-.2-2.11-1.05-4.44-2.25-7-3.57-2.56-1.33-4.56-2.44-6.02-3.32-.53-.32-.91-.79-1.13-1.41-.22-.62-.18-1.26.12-1.93l4.11-8.65c.39-.84.45-1.4.18-1.67-.27-.27-.69-.21-1.25.2-3.5,2.28-7.63,4.7-12.41,7.27-1.17.66-2.29.71-3.35.15-1.06-.55-1.68-1.51-1.85-2.86-.31-2.34-.46-7.04-.45-14.09,0-.43-.08-.74-.27-.93-.19-.18-.43-.2-.73-.05-.3.15-.59.5-.87,1.05l-4.67,8.36c-.37.63-.94,1.01-1.69,1.11-.75.11-1.5,0-2.24-.35l-5.09-2.65c-.91-.52-1.49-1.23-1.73-2.14-.25-.91-.21-1.79.09-2.63,1.31-3.2,3.64-8.01,6.99-14.44,3.34-6.43,5.89-11.11,7.63-14.04.85-1.39,1.76-2.33,2.72-2.84s2.14-.39,3.55.34c7.21,3.75,11.07,5.82,11.6,6.23.53.41,1.02,1.73,1.47,3.97Z"/>
      <path class="st0" d="M677.33,120.5l-4.24,37.02c-.15,1.48-.49,2.57-1.02,3.27-.53.69-1.19,1-2,.92-.81-.08-1.59-.4-2.33-.96l-14.89-11.27c-1.51-1.14-2.27-2.16-2.28-3.04.02-.28.09-.73.23-1.36l.83-3.88c.28-1.2-.28-2.42-1.67-3.66l-8.74-6.62c-.65-.49-1.19-.8-1.62-.94-.43-.13-.92-.07-1.46.2l-4.64,2.38c-.73.32-1.35.44-1.88.36s-1.14-.39-1.85-.92l-4.16-3.15c-1.2-.91-1.52-1.83-.96-2.77.06-.15.14-.28.23-.4.54-.71,1.28-1.21,2.23-1.51l33.8-14.57c3.21-1.35,6.37-.85,9.48,1.5l3.7,2.8c2.47,1.87,3.54,4.06,3.23,6.59ZM653.39,120.99l-5.31,2.6c-.33.18-.58.38-.75.6-.61.8-.53,1.49.25,2.08l4.21,3.19c.65.49,1.22.67,1.71.53.49-.14.83-.33,1.02-.58.19-.25.33-.53.42-.85l1.25-5.31c.24-1.08.06-1.84-.52-2.29-.59-.44-1.34-.44-2.27.02Z"/>
      <path class="st0" d="M708.02,163.65l-8.33,8.08c-1.22,1.19-1.94,2.26-2.17,3.22-.23.96.24,2.03,1.4,3.21l10.27,10.48c1.22,1.3.87,2.88-1.03,4.75-1.46,1.43-2.7,2.3-3.72,2.59-1.01.29-2.08-.1-3.19-1.18-3.92-3.79-7.75-7.59-11.49-11.4-3.73-3.81-8.47-8.7-14.2-14.67-.97-.99-1.52-2.04-1.65-3.13-.13-1.09.2-2.1.97-3.02,2.19-2.58,5.87-6.4,11.05-11.47,5.18-5.07,8.74-8.43,10.67-10.08,1.93-1.65,3.38-2.57,4.36-2.76.97-.19,2.01.27,3.12,1.41l10.88,11.11c1.14,1.16,1.58,2.23,1.34,3.19-.24.97-1,2.16-2.27,3.56-1.27,1.41-3.28,3.45-6.01,6.13Z"/>
    </g>
  </g>
</svg>