<?xml version="1.0" encoding="UTF-8"?>
<svg id="Capa_1" xmlns="http://www.w3.org/2000/svg" version="1.1" viewBox="0 0 800 800">
  <!-- Generator: Adobe Illustrator 29.8.9, SVG Export Plug-In . SVG Version: 2.1.1 Build 1)  -->
  <defs>
    <style>
      .st0 {
        fill: #fff;
      }
    </style>
  </defs>
  <path class="st0" d="M571,474.5c-9.5-4.5-55-27-63.5-30.5s-14.5-4.5-21,5-24,30-29.5,36.5-10.5,7-20,0c-27.29-10.95-52.49-26.51-74.5-46-19.93-18.76-36.8-40.52-50-64.5-5.5-9,0-14,4-19s9-10.5,14-16c3.66-4.76,6.68-9.97,9-15.5,2.51-5.21,2.51-11.29,0-16.5,0-4.5-21-50-29-68.5s-15-16-20.5-16h-20c-9.53.37-18.52,4.51-25,11.5-21.15,20.18-32.93,48.27-32.5,77.5,2.56,35.5,15.61,69.44,37.5,97.5,40.17,59.67,95.12,107.91,159.5,140,22,9.5,39,15,52.5,19.5,18.96,5.73,38.99,6.93,58.5,3.5,26.19-5.31,49-21.24,63-44,5.77-13.9,7.67-29.11,5.5-44-2.5-3.5-8.5-6-18-10.5Z"/>
  <path class="st0" d="M664.5,134C594.64,63.48,499.26,24.17,400,25,194.55,26.08,28.88,193.49,29.95,398.94c.34,64.45,17.41,127.7,49.55,183.56l-50,192.5,197-50c54.46,29.64,115.5,45.11,177.5,45h-4c205.45,1.34,373.08-164.12,374.42-369.57.65-99.97-38.96-196-109.92-266.43h0ZM400,706c-55.47.04-109.91-14.99-157.5-43.5l-11-6.5-117,30.5,31-114-7-11.5c-90.02-144.98-45.48-335.49,99.5-425.51,121.5-75.45,278.9-57.65,380.5,43.01,58.23,57.76,90.84,136.48,90.5,218.5-.28,170.54-138.46,308.72-309,309Z"/>
</svg>